<svg width="202" height="63" viewBox="0 0 202 63" fill="none" xmlns="http://www.w3.org/2000/svg">
<rect x="170" y="16" width="32" height="1" fill="white"/>
<rect x="170" y="23" width="22" height="1" fill="white"/>
<rect x="170" y="30" width="29" height="1" fill="white"/>
<rect x="170" y="37" width="10" height="1" fill="white"/>
<path d="M11.352 11.144C12.6027 11.256 13.5827 11.6667 14.292 12.376C15.0013 13.0667 15.356 13.9533 15.356 15.036C15.356 15.3347 15.328 15.6427 15.272 15.96C15.104 16.8933 14.712 17.752 14.096 18.536C13.48 19.32 12.724 19.9453 11.828 20.412C10.932 20.8787 9.98 21.112 8.972 21.112C8.412 21.112 7.80533 21.084 7.152 21.028C6.928 21.0093 6.65733 20.9907 6.34 20.972C6.02267 20.9533 5.668 20.944 5.276 20.944L3.512 20.972C3.21333 20.9907 2.80267 21 2.28 21C2.224 21 2.196 20.944 2.196 20.832C2.21467 20.72 2.24267 20.664 2.28 20.664C2.91467 20.664 3.39067 20.6173 3.708 20.524C4.044 20.412 4.296 20.2253 4.464 19.964C4.632 19.684 4.76267 19.264 4.856 18.704L7.152 5.74C7.208 5.404 7.236 5.124 7.236 4.9C7.236 4.47067 7.10533 4.19067 6.844 4.06C6.58267 3.91067 6.07867 3.836 5.332 3.836C5.25733 3.836 5.22 3.78 5.22 3.668C5.23867 3.556 5.276 3.5 5.332 3.5L6.62 3.528C7.32933 3.56533 7.88 3.584 8.272 3.584C8.608 3.584 8.90667 3.57467 9.168 3.556C9.448 3.53733 9.69067 3.51867 9.896 3.5C10.4373 3.444 10.904 3.416 11.296 3.416C12.6587 3.416 13.676 3.68667 14.348 4.228C15.02 4.75067 15.356 5.46 15.356 6.356C15.356 6.61733 15.328 6.90667 15.272 7.224C15.0667 8.13867 14.628 8.932 13.956 9.604C13.284 10.2573 12.416 10.7707 11.352 11.144ZM7.824 11.144L8.944 11.172C10.2693 11.172 11.324 10.808 12.108 10.08C12.9107 9.352 13.4147 8.4 13.62 7.224C13.676 6.90667 13.704 6.59867 13.704 6.3C13.704 5.53467 13.4613 4.928 12.976 4.48C12.5093 4.032 11.7627 3.808 10.736 3.808C10.288 3.808 9.94267 3.85467 9.7 3.948C9.476 4.04133 9.28 4.23733 9.112 4.536C8.96267 4.816 8.84133 5.264 8.748 5.88L7.824 11.144ZM13.396 16.408C13.452 16.016 13.48 15.652 13.48 15.316C13.48 14.196 13.1533 13.328 12.5 12.712C11.8467 12.096 10.8947 11.7787 9.644 11.76C9.084 11.7413 8.43067 11.76 7.684 11.816L6.48 18.788C6.424 19.0307 6.396 19.264 6.396 19.488C6.396 19.9173 6.55467 20.216 6.872 20.384C7.18933 20.552 7.768 20.636 8.608 20.636C9.97067 20.636 11.0533 20.2533 11.856 19.488C12.6587 18.7227 13.172 17.696 13.396 16.408ZM27.7736 18.844C27.7922 18.8253 27.8202 18.816 27.8576 18.816C27.9136 18.816 27.9602 18.8533 27.9976 18.928C28.0349 18.984 28.0349 19.0307 27.9976 19.068C27.3629 19.796 26.7936 20.3467 26.2896 20.72C25.8042 21.0747 25.3282 21.252 24.8616 21.252C24.5442 21.252 24.3016 21.1587 24.1336 20.972C23.9842 20.7667 23.9096 20.44 23.9096 19.992C23.9096 19.6187 23.9656 19.124 24.0776 18.508L24.5816 15.596C23.7229 17.332 22.7522 18.732 21.6696 19.796C20.6056 20.8413 19.5789 21.364 18.5896 21.364C17.4322 21.364 16.8536 20.6733 16.8536 19.292C16.8536 19.1427 16.8722 18.8627 16.9096 18.452C17.0962 17.1267 17.5909 15.792 18.3936 14.448C19.1962 13.104 20.1389 12.0027 21.2216 11.144C22.3042 10.2667 23.3216 9.828 24.2736 9.828C24.6282 9.828 24.9736 9.89333 25.3096 10.024C25.6456 10.1547 25.9162 10.3507 26.1216 10.612C26.4576 10.332 26.6816 9.996 26.7936 9.604C26.8122 9.548 26.8776 9.52933 26.9896 9.548C27.1016 9.56667 27.1482 9.59467 27.1296 9.632L25.5056 18.508C25.4496 18.788 25.4216 19.04 25.4216 19.264C25.4216 19.8427 25.5896 20.132 25.9256 20.132C26.3362 20.132 26.9522 19.7027 27.7736 18.844ZM19.5976 19.992C20.2696 19.992 20.9789 19.6467 21.7256 18.956C22.4909 18.2653 23.1722 17.3973 23.7696 16.352C24.3669 15.288 24.7682 14.252 24.9736 13.244C25.0296 13.0013 25.0482 12.7867 25.0296 12.6C25.0296 12.04 24.8802 11.6013 24.5816 11.284C24.3016 10.9667 23.8722 10.808 23.2936 10.808C22.6402 10.8267 21.9682 11.1253 21.2776 11.704C20.6056 12.264 20.0176 13.0293 19.5136 14C19.0096 14.952 18.6736 16.016 18.5056 17.192C18.4496 17.6027 18.4216 17.976 18.4216 18.312C18.4216 19.432 18.8136 19.992 19.5976 19.992ZM39.4942 18.9C39.5129 18.8813 39.5409 18.872 39.5782 18.872C39.6529 18.872 39.7089 18.9093 39.7462 18.984C39.7835 19.04 39.7835 19.0867 39.7462 19.124C38.4955 20.5427 37.5062 21.252 36.7782 21.252C36.3489 21.252 35.9755 21.1213 35.6582 20.86C35.3595 20.5987 34.9955 20.104 34.5662 19.376L32.9422 16.548C32.7742 16.268 32.6249 16.072 32.4942 15.96C32.3635 15.848 32.1955 15.792 31.9902 15.792L31.7382 15.82L30.8422 20.804C30.8049 20.9347 30.7022 21.0373 30.5342 21.112C30.3849 21.1867 30.1795 21.224 29.9182 21.224C29.4889 21.224 29.2742 21.168 29.2742 21.056L29.3862 20.412C29.4982 19.964 29.6009 19.4693 29.6942 18.928L32.5502 3.668C32.5875 3.36933 32.6062 3.17333 32.6062 3.08C32.6062 2.59467 32.4009 2.352 31.9902 2.352C31.6915 2.352 31.2435 2.492 30.6462 2.772H30.5902C30.5155 2.772 30.4689 2.73467 30.4502 2.66C30.4315 2.56667 30.4502 2.50133 30.5062 2.464L34.1182 0.699999H34.1742C34.2489 0.699999 34.3142 0.727999 34.3702 0.783998C34.4449 0.839999 34.4729 0.886666 34.4542 0.924L32.3542 12.376C33.0635 11.592 33.8382 10.976 34.6782 10.528C35.5369 10.0613 36.4049 9.828 37.2822 9.828C37.8235 9.828 38.2155 9.968 38.4582 10.248C38.7009 10.5093 38.8222 10.8173 38.8222 11.172C38.8222 11.34 38.8129 11.452 38.7942 11.508C38.6635 12.18 38.1689 12.8427 37.3102 13.496C36.4702 14.1307 35.3502 14.6907 33.9502 15.176L35.8262 18.424C36.1995 19.0587 36.5169 19.488 36.7782 19.712C37.0582 19.936 37.3475 20.048 37.6462 20.048C38.1315 20.048 38.7475 19.6653 39.4942 18.9ZM36.0502 10.668C35.0982 10.668 34.2302 11.0787 33.4462 11.9C32.6809 12.7213 32.1489 13.8227 31.8502 15.204L31.8222 15.428C33.5022 15.036 34.7155 14.588 35.4622 14.084C36.2275 13.58 36.6849 12.8893 36.8342 12.012C36.8715 11.8253 36.8902 11.6947 36.8902 11.62C36.8902 11.3213 36.8155 11.088 36.6662 10.92C36.5169 10.752 36.3115 10.668 36.0502 10.668ZM47.698 10.276C47.8286 10.276 47.894 10.3413 47.894 10.472C47.894 10.6213 47.7913 10.8173 47.586 11.06C47.3806 11.3027 47.1846 11.424 46.998 11.424C46.9046 11.424 46.5313 11.3867 45.878 11.312C45.2433 11.2187 44.618 11.1627 44.002 11.144L42.77 18.088C42.714 18.3867 42.686 18.6573 42.686 18.9C42.686 19.3667 42.798 19.712 43.022 19.936C43.246 20.16 43.5913 20.272 44.058 20.272C44.5433 20.272 45.0006 20.1693 45.43 19.964C45.8593 19.74 46.298 19.432 46.746 19.04H46.774C46.83 19.04 46.886 19.068 46.942 19.124C47.0166 19.18 47.026 19.2267 46.97 19.264C46.13 19.992 45.3926 20.524 44.758 20.86C44.142 21.1773 43.5446 21.336 42.966 21.336C42.4246 21.336 41.9766 21.196 41.622 20.916C41.2673 20.636 41.09 20.188 41.09 19.572C41.09 19.46 41.1086 19.2547 41.146 18.956L42.35 12.432C42.4246 12.0773 42.462 11.7787 42.462 11.536C42.462 11.2747 42.3873 11.1067 42.238 11.032C42.0886 10.9387 41.8086 10.892 41.398 10.892C41.342 10.892 41.314 10.8453 41.314 10.752C41.314 10.7147 41.3233 10.6773 41.342 10.64C41.3793 10.584 41.4073 10.556 41.426 10.556C42.0606 10.556 42.6113 10.3507 43.078 9.94C43.5446 9.52933 43.862 9.016 44.03 8.4C44.0673 8.344 44.1513 8.316 44.282 8.316C44.4686 8.316 44.5433 8.344 44.506 8.4L44.142 10.472C45.0566 10.4347 45.9246 10.388 46.746 10.332L47.698 10.276ZM57.8598 9.912C58.5691 9.912 58.9238 10.4253 58.9238 11.452C58.9238 12.9827 58.1958 15.1667 56.7398 18.004C55.3024 20.8227 53.6411 23.3333 51.7558 25.536C49.8704 27.7573 48.3024 28.868 47.0518 28.868C46.6784 28.868 46.3891 28.7747 46.1838 28.588C45.9598 28.4013 45.8758 28.1027 45.9318 27.692C46.0438 27.188 46.4171 26.936 47.0518 26.936C47.8544 26.936 48.4984 26.8987 48.9838 26.824C49.4878 26.768 49.9544 26.5813 50.3838 26.264C50.9624 25.872 51.7184 25.0227 52.6518 23.716L52.6798 22.288C52.6798 18.7787 52.3904 16.0533 51.8118 14.112C51.2518 12.152 50.4771 11.172 49.4878 11.172C48.9091 11.172 48.4424 11.5173 48.0878 12.208C48.0691 12.264 48.0131 12.292 47.9198 12.292C47.7891 12.292 47.7331 12.236 47.7518 12.124C48.4611 10.668 49.3291 9.94 50.3558 9.94C51.1398 9.94 51.8118 10.388 52.3718 11.284C52.9318 12.18 53.3611 13.4027 53.6598 14.952C53.9584 16.5013 54.1078 18.2373 54.1078 20.16C54.1078 20.8133 54.0984 21.308 54.0798 21.644C54.8824 20.3933 55.5918 19.1613 56.2078 17.948C56.8238 16.7347 57.2158 15.7827 57.3838 15.092C57.4771 14.7373 57.5238 14.3453 57.5238 13.916C57.5238 13.2813 57.3744 12.5347 57.0758 11.676C56.9264 11.3213 56.8518 11.0413 56.8518 10.836C56.8518 10.5747 56.9451 10.36 57.1318 10.192C57.3184 10.0053 57.5611 9.912 57.8598 9.912ZM69.0698 9.828C69.7978 9.828 70.3672 10.0987 70.7778 10.64C71.1885 11.1627 71.3938 11.8627 71.3938 12.74C71.3938 13.0947 71.3472 13.5053 71.2538 13.972C70.9552 15.484 70.3858 16.8 69.5458 17.92C68.7058 19.04 67.7632 19.8987 66.7178 20.496C65.6725 21.0747 64.7018 21.364 63.8058 21.364C62.9658 21.364 62.2938 21.1867 61.7898 20.832C61.2858 20.4587 61.0338 19.9547 61.0338 19.32C61.0338 19.2267 61.0525 19.068 61.0898 18.844L63.9458 3.668C63.9832 3.36933 64.0018 3.18267 64.0018 3.108C64.0018 2.604 63.7872 2.352 63.3578 2.352C63.0592 2.352 62.6112 2.492 62.0138 2.772H61.9578C61.8832 2.772 61.8365 2.72533 61.8178 2.632C61.7992 2.53867 61.8272 2.48267 61.9018 2.464L65.5138 0.699999H65.5698C65.6445 0.699999 65.7098 0.727999 65.7658 0.783998C65.8218 0.839999 65.8405 0.886666 65.8218 0.924L63.2738 14.896C63.9272 13.4027 64.7765 12.1893 65.8218 11.256C66.8672 10.304 67.9498 9.828 69.0698 9.828ZM69.4338 14.84C69.5458 14.2987 69.6018 13.7947 69.6018 13.328C69.6018 12.6373 69.4618 12.096 69.1818 11.704C68.9205 11.312 68.5005 11.116 67.9218 11.116C67.1565 11.116 66.4192 11.4147 65.7098 12.012C65.0005 12.6093 64.3752 13.4587 63.8338 14.56C63.3112 15.6427 62.9192 16.8933 62.6578 18.312C62.6392 18.4053 62.6298 18.536 62.6298 18.704C62.6298 19.2827 62.8352 19.7493 63.2458 20.104C63.6752 20.4587 64.2445 20.636 64.9538 20.636C65.5698 20.636 66.1765 20.412 66.7738 19.964C67.3898 19.4973 67.9312 18.8253 68.3978 17.948C68.8645 17.0707 69.2098 16.0347 69.4338 14.84ZM80.7625 11.088C80.7625 11.6667 80.4545 12.2267 79.8385 12.768C79.2411 13.2907 78.4291 13.748 77.4025 14.14C76.3945 14.532 75.3025 14.8213 74.1265 15.008C74.0331 15.6053 73.9865 16.1187 73.9865 16.548C73.9865 17.7053 74.2478 18.6387 74.7705 19.348C75.2931 20.0387 76.0305 20.384 76.9825 20.384C78.0278 20.384 78.9611 20.076 79.7825 19.46H79.8385C79.8945 19.46 79.9411 19.488 79.9785 19.544C80.0345 19.6 80.0345 19.656 79.9785 19.712C78.6718 20.7947 77.3091 21.336 75.8905 21.336C74.7145 21.336 73.8185 20.9627 73.2025 20.216C72.6051 19.4507 72.3065 18.4707 72.3065 17.276C72.3065 16.8653 72.3531 16.38 72.4465 15.82C72.6145 14.868 73.0065 13.9347 73.6225 13.02C74.2385 12.0867 75.0038 11.3213 75.9185 10.724C76.8518 10.1267 77.8225 9.828 78.8305 9.828C79.4465 9.828 79.9225 9.94 80.2585 10.164C80.5945 10.388 80.7625 10.696 80.7625 11.088ZM77.5985 10.584C76.7398 10.584 76.0118 10.9667 75.4145 11.732C74.8358 12.4787 74.4345 13.44 74.2105 14.616C75.5171 14.392 76.5718 14.056 77.3745 13.608C78.1958 13.16 78.6905 12.6 78.8585 11.928C78.8958 11.7413 78.9145 11.6107 78.9145 11.536C78.9145 11.2187 78.7838 10.9853 78.5225 10.836C78.2611 10.668 77.9531 10.584 77.5985 10.584ZM92.1801 18.9C92.1988 18.8813 92.2268 18.872 92.2641 18.872C92.3388 18.872 92.3948 18.9093 92.4321 18.984C92.4695 19.04 92.4695 19.0867 92.4321 19.124C91.1815 20.5427 90.1921 21.252 89.4641 21.252C89.0348 21.252 88.6615 21.1213 88.3441 20.86C88.0455 20.5987 87.6815 20.104 87.2521 19.376L85.6281 16.548C85.4601 16.268 85.3108 16.072 85.1801 15.96C85.0495 15.848 84.8815 15.792 84.6761 15.792L84.4241 15.82L83.5281 20.804C83.4908 20.9347 83.3881 21.0373 83.2201 21.112C83.0708 21.1867 82.8655 21.224 82.6041 21.224C82.1748 21.224 81.9601 21.168 81.9601 21.056L82.0721 20.412C82.1841 19.964 82.2868 19.4693 82.3801 18.928L85.2361 3.668C85.2735 3.36933 85.2921 3.17333 85.2921 3.08C85.2921 2.59467 85.0868 2.352 84.6761 2.352C84.3775 2.352 83.9295 2.492 83.3321 2.772H83.2761C83.2015 2.772 83.1548 2.73467 83.1361 2.66C83.1175 2.56667 83.1361 2.50133 83.1921 2.464L86.8041 0.699999H86.8601C86.9348 0.699999 87.0001 0.727999 87.0561 0.783998C87.1308 0.839999 87.1588 0.886666 87.1401 0.924L85.0401 12.376C85.7495 11.592 86.5241 10.976 87.3641 10.528C88.2228 10.0613 89.0908 9.828 89.9681 9.828C90.5095 9.828 90.9015 9.968 91.1441 10.248C91.3868 10.5093 91.5081 10.8173 91.5081 11.172C91.5081 11.34 91.4988 11.452 91.4801 11.508C91.3495 12.18 90.8548 12.8427 89.9961 13.496C89.1561 14.1307 88.0361 14.6907 86.6361 15.176L88.5121 18.424C88.8855 19.0587 89.2028 19.488 89.4641 19.712C89.7441 19.936 90.0335 20.048 90.3321 20.048C90.8175 20.048 91.4335 19.6653 92.1801 18.9ZM88.7361 10.668C87.7841 10.668 86.9161 11.0787 86.1321 11.9C85.3668 12.7213 84.8348 13.8227 84.5361 15.204L84.5081 15.428C86.1881 15.036 87.4015 14.588 88.1481 14.084C88.9135 13.58 89.3708 12.8893 89.5201 12.012C89.5575 11.8253 89.5761 11.6947 89.5761 11.62C89.5761 11.3213 89.5015 11.088 89.3521 10.92C89.2028 10.752 88.9975 10.668 88.7361 10.668ZM118.93 10.36C119.397 10.36 119.63 10.6493 119.63 11.228C119.63 11.6947 119.5 12.152 119.238 12.6C118.996 13.0293 118.66 13.384 118.23 13.664C117.801 13.944 117.344 14.084 116.858 14.084C116.336 14.084 115.664 13.888 114.842 13.496C114.506 16.0533 113.648 18.004 112.266 19.348C110.904 20.6733 109.205 21.336 107.17 21.336C105.901 21.336 104.762 21.0373 103.754 20.44C102.765 19.824 101.99 19.012 101.43 18.004C100.87 16.996 100.59 15.904 100.59 14.728C100.59 14.224 100.646 13.72 100.758 13.216C100.982 12.2267 101.412 11.3307 102.046 10.528C102.681 9.72533 103.428 9.1 104.286 8.652C105.145 8.204 106.013 7.98 106.89 7.98C107.824 7.98 108.589 8.24133 109.186 8.764C110.306 7.51333 110.866 6.42133 110.866 5.488C110.866 5.13333 110.81 4.86267 110.698 4.676C110.586 4.47067 110.428 4.284 110.222 4.116C110.073 3.96667 109.961 3.836 109.886 3.724C109.812 3.612 109.774 3.45333 109.774 3.248C109.774 2.968 109.858 2.744 110.026 2.576C110.194 2.408 110.409 2.324 110.67 2.324C111.081 2.324 111.417 2.51067 111.678 2.884C111.94 3.25733 112.07 3.752 112.07 4.368C112.07 5.41333 111.678 6.47733 110.894 7.56C110.11 8.64267 109.168 9.66 108.066 10.612C106.965 11.5453 105.584 12.6373 103.922 13.888L102.298 15.148C102.485 16.156 102.868 17.052 103.446 17.836C104.025 18.6013 104.716 19.1987 105.518 19.628C106.34 20.0387 107.198 20.244 108.094 20.244C109.793 20.244 111.202 19.6467 112.322 18.452C113.461 17.2573 114.152 15.54 114.394 13.3L113.862 13.02C113.078 12.6093 112.453 12.3107 111.986 12.124C111.52 11.9187 111.072 11.816 110.642 11.816C110.381 11.816 110.166 11.872 109.998 11.984C109.849 12.096 109.774 12.236 109.774 12.404C109.774 12.628 109.849 12.8893 109.998 13.188C110.148 13.524 110.222 13.7667 110.222 13.916C110.222 14.084 110.166 14.2427 110.054 14.392C109.942 14.5227 109.774 14.588 109.55 14.588C109.326 14.588 109.14 14.5227 108.99 14.392C108.86 14.2427 108.794 14.0093 108.794 13.692C108.794 13.2067 108.944 12.74 109.242 12.292C109.56 11.844 109.961 11.4893 110.446 11.228C110.95 10.948 111.464 10.808 111.986 10.808C112.453 10.808 112.929 10.9107 113.414 11.116C113.918 11.3027 114.534 11.5827 115.262 11.956C115.86 12.2733 116.373 12.5253 116.802 12.712C117.232 12.88 117.624 12.964 117.978 12.964C118.221 12.964 118.417 12.9173 118.566 12.824C118.734 12.712 118.818 12.5813 118.818 12.432C118.818 12.264 118.725 12.0493 118.538 11.788C118.426 11.6387 118.342 11.508 118.286 11.396C118.23 11.284 118.202 11.1533 118.202 11.004C118.202 10.5747 118.445 10.36 118.93 10.36ZM102.298 12.32C102.205 12.9173 102.158 13.4213 102.158 13.832C102.158 14.0373 102.177 14.3267 102.214 14.7C102.718 14.2893 103.241 13.8787 103.782 13.468C105.481 12.1613 106.806 11.0787 107.758 10.22C107.292 9.23067 106.526 8.736 105.462 8.736C104.734 8.736 104.081 9.08133 103.502 9.772C102.942 10.444 102.541 11.2933 102.298 12.32ZM17.764 54.664C17.8387 54.664 17.876 54.72 17.876 54.832C17.876 54.944 17.8387 55 17.764 55C17.484 55 17.064 54.9813 16.504 54.944C15.832 54.9067 15.3093 54.888 14.936 54.888C14.544 54.888 14.0493 54.9067 13.452 54.944C12.892 54.9813 12.4813 55 12.22 55C12.164 55 12.136 54.944 12.136 54.832C12.136 54.72 12.164 54.664 12.22 54.664C12.9107 54.664 13.3867 54.58 13.648 54.412C13.928 54.2253 14.068 53.8987 14.068 53.432C14.068 53.1147 14.0493 52.8533 14.012 52.648L12.892 45.76H8.664L5.612 51.304C5.03333 52.3867 4.744 53.1707 4.744 53.656C4.744 54.048 4.89333 54.3187 5.192 54.468C5.49067 54.5987 5.948 54.664 6.564 54.664C6.63867 54.664 6.66667 54.72 6.648 54.832C6.648 54.944 6.61067 55 6.536 55C6.33067 55 5.91067 54.9813 5.276 54.944C4.56667 54.9067 4.016 54.888 3.624 54.888C3.232 54.888 2.77467 54.9067 2.252 54.944C1.72933 54.9813 1.328 55 1.048 55C0.973333 55 0.936 54.944 0.936 54.832C0.936 54.72 0.973333 54.664 1.048 54.664C1.58933 54.664 2.168 54.4307 2.784 53.964C3.4 53.4787 4.03467 52.676 4.688 51.556L12.696 37.22C12.7333 37.164 12.7987 37.136 12.892 37.136C13.06 37.136 13.1627 37.1827 13.2 37.276L15.664 52.648C15.7573 53.2267 15.86 53.6467 15.972 53.908C16.084 54.1693 16.2707 54.3653 16.532 54.496C16.812 54.608 17.2227 54.664 17.764 54.664ZM8.972 45.172H12.808L11.94 39.768L8.972 45.172ZM27.9731 52.508C27.9171 52.788 27.8891 53.0307 27.8891 53.236C27.8891 53.8333 28.0757 54.132 28.4491 54.132C28.8224 54.132 29.4384 53.7027 30.2971 52.844C30.3344 52.8067 30.3624 52.788 30.3811 52.788C30.4371 52.788 30.4837 52.8253 30.5211 52.9C30.5771 52.956 30.5771 53.012 30.5211 53.068C29.8491 53.8147 29.2704 54.3653 28.7851 54.72C28.2997 55.0747 27.8237 55.252 27.3571 55.252C26.7037 55.252 26.3771 54.8413 26.3771 54.02C26.3771 53.7213 26.4424 53.2173 26.5731 52.508L27.1051 49.736C26.2464 51.4907 25.3317 52.872 24.3611 53.88C23.4091 54.8693 22.4384 55.364 21.4491 55.364C20.7771 55.364 20.2264 55.1493 19.7971 54.72C19.3677 54.272 19.1531 53.572 19.1531 52.62C19.1531 52.4147 19.1904 52.032 19.2651 51.472C19.5077 50.128 20.0117 48.868 20.7771 47.692C21.5611 46.516 22.4851 45.5827 23.5491 44.892C24.6317 44.1827 25.7051 43.828 26.7691 43.828C27.2917 43.828 27.7397 43.9493 28.1131 44.192L29.3451 37.668C29.3824 37.3693 29.4011 37.1733 29.4011 37.08C29.4011 36.5947 29.1957 36.352 28.7851 36.352C28.4864 36.352 28.0291 36.492 27.4131 36.772H27.3571C27.3011 36.772 27.2544 36.7253 27.2171 36.632C27.1984 36.5387 27.2264 36.4827 27.3011 36.464L30.9411 34.7H30.9971C31.0531 34.7 31.1091 34.728 31.1651 34.784C31.2211 34.84 31.2397 34.8867 31.2211 34.924L27.9731 52.508ZM22.3451 53.992C23.1851 53.992 24.0064 53.5347 24.8091 52.62C25.6304 51.7053 26.3024 50.6413 26.8251 49.428C27.3477 48.2147 27.6091 47.272 27.6091 46.6C27.6091 46.0213 27.4411 45.5827 27.1051 45.284C26.7691 44.9667 26.3117 44.808 25.7331 44.808C24.5197 44.8453 23.4651 45.34 22.5691 46.292C21.6917 47.244 21.1037 48.5973 20.8051 50.352C20.7304 50.7813 20.6931 51.2013 20.6931 51.612C20.6931 52.396 20.8331 52.9933 21.1131 53.404C21.4117 53.796 21.8224 53.992 22.3451 53.992ZM33.7225 55.252C33.3865 55.252 33.1345 55.1587 32.9665 54.972C32.7985 54.7667 32.7145 54.44 32.7145 53.992C32.7145 53.712 32.7798 53.2173 32.9105 52.508L34.0585 46.684C34.1145 46.404 34.1425 46.152 34.1425 45.928C34.1425 45.3307 33.9558 45.032 33.5825 45.032C33.3585 45.032 33.0691 45.144 32.7145 45.368C32.3785 45.592 32.0238 45.9093 31.6505 46.32C31.6318 46.3387 31.6038 46.348 31.5665 46.348C31.5105 46.348 31.4545 46.32 31.3985 46.264C31.3611 46.1893 31.3705 46.1333 31.4265 46.096C32.0798 45.3493 32.6678 44.808 33.1905 44.472C33.7131 44.1173 34.2078 43.94 34.6745 43.94C35.0105 43.94 35.2531 44.0427 35.4025 44.248C35.5705 44.4347 35.6545 44.752 35.6545 45.2C35.6545 45.5547 35.5985 46.0307 35.4865 46.628L34.3385 52.508C34.2825 52.8067 34.2545 53.0587 34.2545 53.264C34.2545 53.8427 34.4318 54.132 34.7865 54.132C35.2345 54.132 35.8691 53.7213 36.6905 52.9C36.7278 52.8627 36.7651 52.844 36.8025 52.844C36.8585 52.844 36.9051 52.8813 36.9425 52.956C36.9798 53.012 36.9705 53.068 36.9145 53.124C36.2798 53.852 35.7105 54.3933 35.2065 54.748C34.7025 55.084 34.2078 55.252 33.7225 55.252ZM35.4865 40.636C35.1131 40.636 34.8145 40.5333 34.5905 40.328C34.3851 40.104 34.2825 39.8053 34.2825 39.432C34.2825 39.0773 34.3851 38.7973 34.5905 38.592C34.8145 38.3867 35.1131 38.284 35.4865 38.284C35.8598 38.284 36.1491 38.3867 36.3545 38.592C36.5598 38.7973 36.6625 39.0773 36.6625 39.432C36.6625 39.8053 36.5598 40.104 36.3545 40.328C36.1491 40.5333 35.8598 40.636 35.4865 40.636ZM49.6564 52.844C49.6938 52.8067 49.7218 52.788 49.7404 52.788C49.7964 52.788 49.8431 52.8253 49.8804 52.9C49.9364 52.956 49.9364 53.012 49.8804 53.068C49.2458 53.8147 48.6764 54.3653 48.1724 54.72C47.6871 55.0747 47.2111 55.252 46.7444 55.252C46.4084 55.252 46.1564 55.1587 45.9884 54.972C45.8391 54.7667 45.7644 54.44 45.7644 53.992C45.7644 53.6187 45.8204 53.124 45.9324 52.508L46.7444 48.056C46.8564 47.4587 46.9124 46.9547 46.9124 46.544C46.9124 45.4613 46.5111 44.92 45.7084 44.92C45.0924 44.92 44.4484 45.312 43.7764 46.096C43.1231 46.88 42.5071 48.028 41.9284 49.54C41.3498 51.0333 40.8831 52.788 40.5284 54.804C40.4911 54.9347 40.3884 55.0373 40.2204 55.112C40.0711 55.1867 39.8658 55.224 39.6044 55.224C39.3431 55.224 39.1658 55.2053 39.0724 55.168C38.9978 55.1493 38.9604 55.112 38.9604 55.056L39.0724 54.412C39.1844 53.964 39.2871 53.4693 39.3804 52.928L40.5284 46.684C40.5844 46.404 40.6124 46.152 40.6124 45.928C40.6124 45.3307 40.4258 45.032 40.0524 45.032C39.8284 45.032 39.5391 45.144 39.1844 45.368C38.8484 45.592 38.4938 45.9093 38.1204 46.32C38.1018 46.3387 38.0738 46.348 38.0364 46.348C37.9804 46.348 37.9244 46.32 37.8684 46.264C37.8311 46.1893 37.8404 46.1333 37.8964 46.096C38.5311 45.368 39.1098 44.8267 39.6324 44.472C40.1738 44.1173 40.6871 43.94 41.1724 43.94C41.4898 43.94 41.7231 44.0427 41.8724 44.248C42.0218 44.4347 42.0964 44.7427 42.0964 45.172C42.0964 45.6573 42.0498 46.1427 41.9564 46.628L41.3684 50.016C42.0404 48.0747 42.8338 46.5627 43.7484 45.48C44.6631 44.3787 45.6244 43.828 46.6324 43.828C47.2484 43.828 47.7058 43.996 48.0044 44.332C48.3031 44.668 48.4524 45.2 48.4524 45.928C48.4524 46.376 48.3964 46.908 48.2844 47.524L47.3604 52.508C47.3044 52.788 47.2764 53.04 47.2764 53.264C47.2764 53.8427 47.4631 54.132 47.8364 54.132C48.2284 54.132 48.8351 53.7027 49.6564 52.844ZM61.4961 52.844C61.5147 52.8253 61.5427 52.816 61.5801 52.816C61.6361 52.816 61.6827 52.8533 61.7201 52.928C61.7574 52.984 61.7574 53.0307 61.7201 53.068C61.0854 53.796 60.5161 54.3467 60.0121 54.72C59.5267 55.0747 59.0507 55.252 58.5841 55.252C58.2667 55.252 58.0241 55.1587 57.8561 54.972C57.7067 54.7667 57.6321 54.44 57.6321 53.992C57.6321 53.6187 57.6881 53.124 57.8001 52.508L58.3041 49.596C57.4454 51.332 56.4747 52.732 55.3921 53.796C54.3281 54.8413 53.3014 55.364 52.3121 55.364C51.1547 55.364 50.5761 54.6733 50.5761 53.292C50.5761 53.1427 50.5947 52.8627 50.6321 52.452C50.8187 51.1267 51.3134 49.792 52.1161 48.448C52.9187 47.104 53.8614 46.0027 54.9441 45.144C56.0267 44.2667 57.0441 43.828 57.9961 43.828C58.3507 43.828 58.6961 43.8933 59.0321 44.024C59.3681 44.1547 59.6387 44.3507 59.8441 44.612C60.1801 44.332 60.4041 43.996 60.5161 43.604C60.5347 43.548 60.6001 43.5293 60.7121 43.548C60.8241 43.5667 60.8707 43.5947 60.8521 43.632L59.2281 52.508C59.1721 52.788 59.1441 53.04 59.1441 53.264C59.1441 53.8427 59.3121 54.132 59.6481 54.132C60.0587 54.132 60.6747 53.7027 61.4961 52.844ZM53.3201 53.992C53.9921 53.992 54.7014 53.6467 55.4481 52.956C56.2134 52.2653 56.8947 51.3973 57.4921 50.352C58.0894 49.288 58.4907 48.252 58.6961 47.244C58.7521 47.0013 58.7707 46.7867 58.7521 46.6C58.7521 46.04 58.6027 45.6013 58.3041 45.284C58.0241 44.9667 57.5947 44.808 57.0161 44.808C56.3627 44.8267 55.6907 45.1253 55.0001 45.704C54.3281 46.264 53.7401 47.0293 53.2361 48C52.7321 48.952 52.3961 50.016 52.2281 51.192C52.1721 51.6027 52.1441 51.976 52.1441 52.312C52.1441 53.432 52.5361 53.992 53.3201 53.992ZM72.2087 43.912C72.918 43.912 73.2727 44.4253 73.2727 45.452C73.2727 46.9827 72.5447 49.1667 71.0887 52.004C69.6514 54.8227 67.99 57.3333 66.1047 59.536C64.2194 61.7573 62.6514 62.868 61.4007 62.868C61.0274 62.868 60.738 62.7747 60.5327 62.588C60.3087 62.4013 60.2247 62.1027 60.2807 61.692C60.3927 61.188 60.766 60.936 61.4007 60.936C62.2034 60.936 62.8474 60.8987 63.3327 60.824C63.8367 60.768 64.3034 60.5813 64.7327 60.264C65.3114 59.872 66.0674 59.0227 67.0007 57.716L67.0287 56.288C67.0287 52.7787 66.7394 50.0533 66.1607 48.112C65.6007 46.152 64.826 45.172 63.8367 45.172C63.258 45.172 62.7914 45.5173 62.4367 46.208C62.418 46.264 62.362 46.292 62.2687 46.292C62.138 46.292 62.082 46.236 62.1007 46.124C62.81 44.668 63.678 43.94 64.7047 43.94C65.4887 43.94 66.1607 44.388 66.7207 45.284C67.2807 46.18 67.71 47.4027 68.0087 48.952C68.3074 50.5013 68.4567 52.2373 68.4567 54.16C68.4567 54.8133 68.4474 55.308 68.4287 55.644C69.2314 54.3933 69.9407 53.1613 70.5567 51.948C71.1727 50.7347 71.5647 49.7827 71.7327 49.092C71.826 48.7373 71.8727 48.3453 71.8727 47.916C71.8727 47.2813 71.7234 46.5347 71.4247 45.676C71.2754 45.3213 71.2007 45.0413 71.2007 44.836C71.2007 44.5747 71.294 44.36 71.4807 44.192C71.6674 44.0053 71.91 43.912 72.2087 43.912Z" fill="white"/>
</svg>
