<svg width="380" height="512" viewBox="0 0 380 512" fill="none" xmlns="http://www.w3.org/2000/svg">
<g clip-path="url(#clip0_50_465)">
<path d="M196.206 312.217H140.846C137.142 312.217 134.369 310.671 132.507 307.561C130.646 304.469 129.734 300.972 129.734 297.07V193.084H178.853C185.878 193.084 192.684 195.384 199.326 199.986V182.722L196.406 184.323C194.655 185.556 192.064 186.753 188.652 187.912C185.24 189.072 181.973 189.642 178.853 189.642H129.734V125.373H197.574C201.661 125.373 205.657 126.569 209.562 128.962C213.467 131.354 216.04 133.25 217.317 134.667C218.576 136.084 219.506 137.244 220.09 138.127L218.047 120.33L197.574 121.931H104.007L106.05 124.324C107.419 126.091 108.824 128.539 110.283 131.631C111.743 134.723 112.473 137.704 112.473 140.52V297.107C112.473 303.475 109.645 309.677 103.988 315.696L225.619 315.806L228.593 310.064C226.695 311.039 199.8 312.383 196.206 312.254V312.217Z" fill="#161616"/>
<path d="M267.931 339.677C269.099 343.579 270.175 347.959 271.142 352.818C272.109 357.695 272.857 361.634 273.332 364.634C273.806 367.652 274.554 370.744 275.521 373.928C276.488 377.112 277.62 379.634 278.879 381.493C280.138 383.351 281.944 384.861 284.298 386.002C286.633 387.161 289.462 387.732 292.782 387.732V390.658C283.239 390.658 274.901 388.449 267.785 384.014C260.669 379.597 256.144 372.235 254.191 361.965C250.87 343.726 246.4 331.561 240.744 325.45C235.087 319.34 224.358 316.285 208.575 316.285H185.183V368.867C185.183 371.701 185.858 374.664 187.227 377.756C188.577 380.848 190.055 383.204 191.606 384.787L193.65 387.437H159.438C165.094 381.419 167.922 375.217 167.922 368.849V235.249C167.922 232.415 167.192 229.451 165.733 226.359C164.273 223.267 162.85 220.82 161.499 219.053L159.456 216.66H197.463C213.83 216.66 227.734 218.077 239.138 220.912C250.542 223.746 259.063 227.685 264.719 232.727C270.376 237.77 274.372 242.905 276.707 248.132C279.043 253.359 280.229 259.065 280.229 265.267C280.229 292.708 262.876 309.181 228.172 314.665C250.396 316.082 263.643 324.401 267.931 339.64V339.677ZM185.183 312.843H208.575C218.519 312.843 227.041 311.297 234.157 308.187C241.273 305.095 246.619 301.009 250.232 295.966C253.844 290.923 256.381 285.88 257.84 280.819C259.3 275.776 260.03 270.512 260.03 265.009C260.03 250.322 253.99 239.151 241.893 231.55C229.814 223.93 214.505 220.12 195.985 220.12H185.165V312.825L185.183 312.843Z" fill="#161616"/>
<path d="M61.5819 71.3733C61.29 71.1157 60.9068 70.8948 60.4871 70.7292C60.0492 70.5635 59.6843 70.4715 59.3741 70.4347L58.9727 70.3979L65.9793 61.9317L67.366 59.9072L69.4096 61.3796C69.2636 61.3428 69.0812 61.3244 68.8257 61.306C68.5885 61.306 68.1871 61.3428 67.6215 61.49C67.0558 61.6373 66.6362 61.8765 66.326 62.2446L61.2535 68.3918L68.0776 74.4101L71.5809 70.177C71.8181 69.901 72.0006 69.5513 72.1283 69.128C72.2561 68.7047 72.329 68.3734 72.329 68.0973L72.3655 67.7108L74.1902 69.3304C73.2231 69.4777 72.475 69.8826 71.9459 70.5083L68.4425 74.7414L77.0366 82.3241C77.3286 82.5818 77.7117 82.8027 78.1497 82.9499C78.5876 83.1155 78.9342 83.2076 79.2079 83.226L79.6459 83.2812L77.0914 86.3732C76.8724 85.3057 76.4345 84.4591 75.7594 83.8701L61.5819 71.3549V71.3733Z" fill="#161616"/>
<path d="M92.4911 59.2993C92.9655 59.6122 93.4764 59.9803 94.0238 60.4036C94.5712 60.8269 95.0274 61.1766 95.3558 61.4527C95.6843 61.7288 96.0492 61.9864 96.4324 62.2257C96.8155 62.4834 97.1622 62.649 97.4359 62.7226C97.7279 62.8146 98.0198 62.8146 98.33 62.741C98.6402 62.6674 98.9321 62.5018 99.2058 62.2257L99.4795 62.5202C98.6949 63.3116 97.7826 63.7717 96.7608 63.9005C95.739 64.0294 94.6625 63.6429 93.4947 62.741C91.4511 61.1214 89.9002 60.238 88.8419 60.0723C87.7836 59.9067 86.5976 60.4772 85.2838 61.784L83.3497 63.7165L88.4404 69.1643C88.7141 69.4587 89.0608 69.7164 89.4805 69.9189C89.9002 70.1213 90.2468 70.2501 90.5205 70.2869L90.9402 70.3974L88.112 73.2317C88.0025 72.1458 87.6376 71.2624 87.0172 70.5998L74.0623 56.7411C73.7886 56.4466 73.4419 56.2074 73.0222 56.0049C72.6025 55.8025 72.2376 55.6736 71.9639 55.6L71.5625 55.5264L74.7191 52.3792C76.0694 51.0172 77.3649 50.0234 78.5874 49.3792C79.8099 48.7351 80.9047 48.4406 81.8535 48.4958C82.8023 48.551 83.6416 48.7535 84.335 49.1032C85.0284 49.4528 85.6852 49.9498 86.2874 50.5939C88.9513 53.4467 89.0973 56.5755 86.7618 60.0171C88.7506 58.3239 90.6483 58.103 92.4729 59.3178L92.4911 59.2993ZM83.0395 63.3668L84.9736 61.4343C85.7947 60.6061 86.3603 59.7411 86.6523 58.8392C86.9442 57.9374 86.999 57.0724 86.7983 56.2442C86.6158 55.416 86.3239 54.6982 85.9589 54.054C85.594 53.4098 85.1378 52.8025 84.6087 52.2319C83.1855 50.7044 81.598 50.0602 79.8646 50.2626C78.1312 50.4651 76.489 51.3485 74.9563 52.8761L74.0623 53.7779L83.0395 63.3852V63.3668Z" fill="#161616"/>
<path d="M90.612 41.7417C90.904 38.392 92.2907 35.7418 94.7722 33.8093C97.2537 31.8952 100.082 31.251 103.293 31.8768C106.505 32.5209 109.132 34.251 111.176 37.0669C113.219 39.8828 114.095 42.9564 113.785 46.306C113.475 49.6557 112.088 52.2876 109.607 54.2201C107.125 56.1341 104.297 56.7967 101.085 56.1526C97.8924 55.5268 95.2649 53.7968 93.2213 50.9808C91.1777 48.1649 90.3019 45.0729 90.5938 41.7233L90.612 41.7417ZM109.99 52.9317C111.96 51.4041 112.891 49.214 112.781 46.3797C112.672 43.5453 111.541 40.8951 109.388 38.4472C107.235 35.9626 104.717 34.3982 101.797 33.7725C98.8777 33.1283 96.4144 33.5884 94.4255 35.1344C92.4549 36.662 91.5061 38.8521 91.6156 41.6681C91.7251 44.5024 92.8564 47.1343 95.0094 49.6189C97.1443 52.0851 99.6623 53.6311 102.6 54.2937C105.519 54.9378 107.983 54.4961 109.99 52.9501V52.9317Z" fill="#161616"/>
<path d="M131.502 14.9258L139.95 32.079C140.133 32.4471 140.388 32.7784 140.716 33.1096C141.045 33.4409 141.355 33.6618 141.611 33.7722L141.994 34.0115L138.472 35.8519C138.673 34.7661 138.563 33.8274 138.162 32.9992L130.152 16.7295L131.192 39.9378L130.736 40.177L112.544 25.122L120.901 42.0727C121.083 42.4408 121.339 42.7905 121.649 43.1034C121.977 43.4347 122.251 43.6555 122.507 43.8028L122.853 44.042L120.864 45.0911C121.01 44.042 120.864 43.1034 120.463 42.2936L112.015 25.1404C111.832 24.7723 111.577 24.4226 111.267 24.0914C110.938 23.7601 110.646 23.5208 110.391 23.3736L110.062 23.1527L112.07 22.1036L130.626 37.4348L129.641 15.6988L128.528 13.4534L131.174 12.0547C130.973 13.1406 131.082 14.0792 131.484 14.9074L131.502 14.9258Z" fill="#161616"/>
<path d="M162.538 2.64995L164.746 2.11621C164.345 2.74197 163.98 3.73582 163.615 5.13458L160.549 17.3001L162.319 25.2141C162.411 25.619 162.593 26.0055 162.849 26.4104C163.104 26.8153 163.341 27.0914 163.542 27.2754L163.852 27.5883L160.002 28.5085C160.44 27.5147 160.568 26.5576 160.367 25.6742L158.725 18.3307L150.423 8.28178C150.131 7.93209 149.802 7.564 149.437 7.19591C149.072 6.82781 148.762 6.53334 148.507 6.33088L148.16 6.05481L151.682 5.2082C151.645 6.05481 151.974 6.90143 152.649 7.72964L160.148 16.8584L163.049 5.24501C163.177 4.76649 163.195 4.30637 163.086 3.88306C162.994 3.44135 162.867 3.12847 162.739 2.92602L162.502 2.63154L162.538 2.64995Z" fill="#161616"/>
<path d="M172.575 4.30679C174.601 1.65651 177.173 0.239353 180.257 0.0369015C183.341 -0.16555 186.059 0.901922 188.413 3.23932C190.749 5.59512 192.044 8.52146 192.263 12.0368C192.482 15.5521 191.588 18.6256 189.544 21.2575C187.519 23.8894 184.946 25.3065 181.863 25.509C178.761 25.7114 176.06 24.6624 173.707 22.325C171.371 19.9876 170.075 17.0612 169.857 13.5459C169.638 10.0306 170.532 6.95706 172.557 4.30679H172.575ZM182.848 24.644C185.311 24.4783 187.245 23.1716 188.669 20.7422C190.074 18.3128 190.53 15.46 190.037 12.184C189.563 8.88956 188.267 6.14726 186.151 3.9755C184.034 1.80375 181.753 0.773089 179.253 0.957136C176.79 1.12278 174.856 2.41111 173.433 4.84052C172.028 7.26994 171.572 10.1227 172.064 13.4171C172.539 16.6931 173.834 19.417 175.933 21.6256C178.049 23.8158 180.348 24.8464 182.83 24.6624L182.848 24.644Z" fill="#161616"/>
<path d="M199.505 2.9627C199.542 2.5578 199.505 2.11609 199.414 1.65597C199.304 1.19585 199.195 0.827758 199.067 0.551688L198.866 0.183594L202.716 0.643711C202.005 1.43511 201.585 2.28173 201.476 3.20196L199.943 16.9319C199.359 22.2324 201.056 25.1219 205.088 25.6005C206.895 25.8213 208.482 25.3244 209.869 24.1097C211.256 22.895 212.095 20.9625 212.387 18.2938L213.901 4.67434C213.956 4.26943 213.92 3.82772 213.828 3.3676C213.737 2.90749 213.628 2.53939 213.5 2.26332L213.336 1.89523L215.544 2.1529C214.869 2.9443 214.485 3.79091 214.376 4.71115L212.861 18.3306C212.788 18.938 212.679 19.5453 212.533 20.1343C212.387 20.7416 212.113 21.4594 211.73 22.2876C211.347 23.1158 210.854 23.8336 210.289 24.4042C209.723 24.9747 208.92 25.4348 207.917 25.7845C206.913 26.1342 205.745 26.2262 204.468 26.0606C199.578 25.4716 197.425 22.3428 197.991 16.6558L199.523 2.92589L199.505 2.9627Z" fill="#161616"/>
<path d="M229.72 24.1104C229.72 24.6809 229.665 25.3251 229.592 26.0429C229.519 26.7423 229.465 27.3128 229.392 27.7545C229.337 28.1962 229.3 28.6379 229.3 29.1165C229.3 29.595 229.319 29.9815 229.392 30.276C229.465 30.5704 229.611 30.8465 229.83 31.0674C230.049 31.3066 230.34 31.4723 230.705 31.5643L230.596 31.9692C229.538 31.6747 228.698 31.1042 228.06 30.2576C227.439 29.4109 227.202 28.2514 227.366 26.7607C227.676 24.1288 227.622 22.2883 227.22 21.2577C226.819 20.227 225.742 19.4724 223.991 18.9755L221.4 18.2393L219.466 25.546C219.356 25.9325 219.32 26.3742 219.356 26.8527C219.393 27.3312 219.466 27.6993 219.593 27.9754L219.721 28.4171L215.926 27.3496C216.783 26.687 217.313 25.9141 217.55 25.0306L222.476 6.4603C222.586 6.0738 222.604 5.63209 222.567 5.15357C222.513 4.67504 222.458 4.28855 222.367 4.01248L222.221 3.62598L226.454 4.82228C228.279 5.33761 229.757 5.96337 230.924 6.71796C232.092 7.47256 232.895 8.28236 233.333 9.16579C233.771 10.0492 234.026 10.8774 234.099 11.6872C234.172 12.4786 234.099 13.3252 233.862 14.1719C232.858 17.9816 230.322 19.7301 226.253 19.3988C228.662 20.3006 229.83 21.865 229.757 24.1288L229.72 24.1104ZM221.509 17.7792L224.1 18.5154C225.213 18.8282 226.217 18.8835 227.111 18.681C228.023 18.4786 228.753 18.0737 229.355 17.4847C229.939 16.8958 230.413 16.27 230.76 15.6258C231.107 14.9633 231.381 14.2639 231.581 13.4909C232.129 11.448 231.855 9.69952 230.797 8.26396C229.738 6.82839 228.169 5.81613 226.107 5.22718L224.903 4.8959L221.491 17.7792H221.509Z" fill="#161616"/>
<path d="M253.315 17.4662C253.497 17.0981 253.607 16.6932 253.661 16.2146C253.716 15.7361 253.716 15.3496 253.698 15.0551L253.643 14.6318L263.222 19.7299L265.412 20.6318L264.481 23.0244C264.481 22.8771 264.463 22.6747 264.427 22.4354C264.39 22.1778 264.244 21.7913 263.989 21.2759C263.733 20.7606 263.405 20.3925 262.985 20.1716L256.033 16.4723L251.928 24.6992L256.964 27.3679C257.274 27.5335 257.657 27.644 258.077 27.6808C258.497 27.7176 258.843 27.6992 259.099 27.644L259.5 27.6071L258.405 29.8157C258.022 28.8587 257.475 28.1961 256.745 27.8096L251.709 25.1409L246.545 35.5212C246.29 36.0181 246.162 36.515 246.162 37.0119C246.162 37.5089 246.345 37.8586 246.728 38.061L252.457 41.0978C252.95 41.3554 253.461 41.5395 253.953 41.6131C254.446 41.6867 254.866 41.6867 255.212 41.6315C255.559 41.5763 255.869 41.4843 256.161 41.3738C256.435 41.2634 256.654 41.153 256.8 41.0242L257.019 40.8769L255.486 43.2511L242.75 36.4782C243.717 36.0181 244.392 35.3739 244.812 34.5641L253.351 17.4478L253.315 17.4662Z" fill="#161616"/>
<path d="M284.716 33.9013L286.541 35.2081C285.574 35.5762 284.844 36.1467 284.333 36.9013L272.217 54.9195L271.378 54.3305L272.108 27.4965C271.925 27.6805 271.816 27.8094 271.761 27.9014L261.124 43.711C260.905 44.0423 260.722 44.4472 260.594 44.8889C260.467 45.349 260.412 45.7171 260.412 45.9932L260.375 46.4349L258.551 45.1282C259.5 44.7601 260.248 44.1896 260.74 43.435L271.378 27.6253C271.688 27.1652 271.944 26.5579 272.144 25.8033L272.29 25.0303L274.151 26.3554L273.458 52.2324L283.932 36.6436C284.151 36.3123 284.333 35.9074 284.461 35.4657C284.588 35.0056 284.661 34.6375 284.661 34.3246V33.9197L284.716 33.9013Z" fill="#161616"/>
<path d="M283.529 48.4041C285.938 45.6618 288.73 44.1526 291.868 43.8581C295.006 43.5636 297.798 44.5575 300.225 46.8397C300.936 47.5206 301.52 48.22 301.976 48.9562C302.433 49.6924 302.743 50.355 302.889 50.9439C303.035 51.5329 303.126 52.0666 303.162 52.5451C303.199 53.0236 303.181 53.3917 303.144 53.6678L303.071 54.0543L301.101 52.1954C301.101 52.1954 301.155 52.0298 301.192 51.8825C301.21 51.7537 301.228 51.4776 301.228 51.0727C301.228 50.6678 301.174 50.2445 301.064 49.8212C300.955 49.3979 300.699 48.8826 300.334 48.2936C299.969 47.6863 299.495 47.1157 298.893 46.5452C297.251 44.9992 295.171 44.5207 292.653 45.128C290.135 45.7354 287.744 47.263 285.482 49.7292C283.219 52.1586 281.942 54.9193 281.668 58.0113C281.395 61.1033 282.307 63.6431 284.442 65.6492C285.263 66.4222 286.266 66.956 287.416 67.2505C288.565 67.5265 289.405 67.3609 289.952 66.7351L294.167 61.9499C294.441 61.6554 294.66 61.2689 294.824 60.8272C295.006 60.3855 295.098 60.0358 295.134 59.7413L295.189 59.318L298.4 60.1646L291.339 68.1707C291.248 68.2075 291.102 68.2443 290.901 68.2811C290.7 68.3179 290.317 68.3179 289.715 68.2995C289.113 68.2995 288.511 68.2075 287.89 68.0419C287.27 67.8946 286.504 67.5633 285.628 67.0664C284.734 66.5695 283.876 65.9253 283.018 65.1339C280.756 62.999 279.679 60.3671 279.789 57.2015C279.898 54.0359 281.139 51.0911 283.529 48.3857V48.4041Z" fill="#161616"/>
<path d="M304.494 88.3239L301.94 85.2687C302.596 85.2687 303.235 84.6613 303.855 83.465L306.501 78.4774L299.951 70.6186L294.769 72.5695C294.185 72.8455 293.783 73.1584 293.564 73.5081C293.346 73.8578 293.254 74.1707 293.273 74.4651V74.9068L291.484 72.7535C292.251 72.8639 293.254 72.6799 294.459 72.2198L313.599 64.9499L314.384 63.4775L316.865 64.7475C316.208 64.8947 315.588 65.502 315.022 66.5695L305.279 85.1398C305.041 85.5632 304.859 86.0417 304.731 86.5754C304.604 87.1092 304.531 87.5325 304.512 87.8637V88.3239H304.494ZM300.425 70.4345L306.738 77.9988L313.307 65.5757L300.425 70.4345Z" fill="#161616"/>
<path d="M314.748 81.9924C317.686 79.8758 320.715 79.0292 323.853 79.4341C326.992 79.839 329.491 81.4586 331.389 84.2377C331.937 85.0475 332.356 85.8758 332.648 86.704C332.94 87.5322 333.086 88.25 333.104 88.8573C333.123 89.4647 333.104 89.9984 333.031 90.4769C332.958 90.9554 332.867 91.3051 332.776 91.5628L332.612 91.9309L331.079 89.6855C331.079 89.6855 331.17 89.5199 331.225 89.4095C331.28 89.2806 331.353 89.023 331.426 88.6181C331.517 88.2131 331.553 87.7898 331.517 87.3665C331.499 86.9248 331.371 86.3727 331.134 85.7101C330.896 85.0475 330.568 84.3666 330.094 83.6856C328.816 81.8083 326.882 80.8697 324.31 80.8881C321.719 80.8881 319.073 81.8451 316.336 83.7408C313.617 85.5997 311.792 87.9923 310.862 90.9554C309.931 93.9002 310.296 96.5873 311.938 99.0351C312.577 99.9921 313.435 100.728 314.493 101.262C315.551 101.796 316.409 101.833 317.084 101.336L322.211 97.6179C322.54 97.3787 322.832 97.0658 323.087 96.6793C323.342 96.2928 323.525 95.9615 323.616 95.7039L323.762 95.2989L326.718 96.8633L318.124 103.084C318.015 103.103 317.869 103.103 317.668 103.084C317.485 103.084 317.084 102.992 316.5 102.845C315.916 102.698 315.332 102.477 314.767 102.182C314.183 101.888 313.526 101.409 312.76 100.728C311.993 100.047 311.282 99.2191 310.625 98.2621C308.873 95.6854 308.38 92.8511 309.147 89.7775C309.913 86.704 311.756 84.1273 314.675 82.0108L314.748 81.9924Z" fill="#161616"/>
<path d="M336.774 98.5015C337.121 98.2991 337.431 98.0046 337.723 97.6365C338.015 97.2684 338.234 96.9371 338.362 96.6795L338.526 96.293L343.872 105.955L345.241 107.962L343.197 109.452C343.27 109.323 343.361 109.158 343.453 108.919C343.544 108.679 343.635 108.293 343.708 107.704C343.781 107.133 343.708 106.636 343.453 106.213L339.566 99.2009L331.775 103.802L334.585 108.882C334.767 109.195 335.023 109.508 335.351 109.765C335.68 110.041 335.972 110.225 336.227 110.317L336.592 110.501L334.494 111.735C334.676 110.722 334.567 109.857 334.165 109.121L331.355 104.041L321.539 109.839C321.064 110.115 320.699 110.465 320.426 110.869C320.152 111.274 320.134 111.679 320.334 112.066L323.528 117.845C323.801 118.342 324.13 118.765 324.513 119.115C324.878 119.464 325.224 119.704 325.553 119.851C325.881 119.998 326.173 120.109 326.483 120.164C326.794 120.219 327.013 120.256 327.195 120.219H327.451L324.914 121.36L317.816 108.514C318.875 108.661 319.787 108.514 320.553 108.054L336.738 98.5015H336.774Z" fill="#161616"/>
<path d="M355.551 137.078L338.563 145.011C338.198 145.176 337.852 145.434 337.523 145.765C337.195 146.097 336.957 146.391 336.83 146.667L336.593 147.054L334.969 143.336C336.009 143.594 336.921 143.538 337.742 143.152L353.854 135.643H331.374L331.173 135.146L346.573 117.073L329.787 124.895C329.422 125.06 329.075 125.299 328.747 125.631C328.418 125.944 328.181 126.238 328.035 126.477L327.78 126.827L326.867 124.729C327.871 124.913 328.783 124.821 329.586 124.453L346.573 116.52C346.938 116.355 347.285 116.115 347.613 115.784C347.942 115.471 348.197 115.177 348.361 114.919L348.58 114.588L349.511 116.704L333.819 135.128H354.875L357.102 134.078L358.324 136.876C357.284 136.618 356.372 136.674 355.551 137.06V137.078Z" fill="#161616"/>
<path d="M358.215 144.588C358.58 144.459 358.944 144.238 359.309 143.925C359.674 143.612 359.93 143.336 360.112 143.097L360.349 142.747L363.889 153.275L364.875 155.502L362.612 156.569C362.703 156.459 362.813 156.311 362.959 156.09C363.105 155.87 363.251 155.502 363.415 154.949C363.579 154.397 363.597 153.9 363.433 153.44L360.86 145.821L352.394 148.876L354.255 154.397C354.365 154.747 354.565 155.078 354.857 155.41C355.131 155.741 355.386 155.98 355.624 156.109L355.952 156.367L353.671 157.176C354.018 156.219 354.073 155.336 353.799 154.544L351.938 149.023L341.264 152.87C340.753 153.054 340.333 153.33 339.986 153.679C339.64 154.029 339.548 154.416 339.694 154.839L341.811 161.115C341.993 161.667 342.249 162.146 342.541 162.551C342.833 162.955 343.143 163.268 343.435 163.471C343.727 163.673 344.001 163.839 344.293 163.949C344.566 164.078 344.803 164.133 344.986 164.133L345.241 164.189L342.559 164.814L337.852 150.845C338.855 151.195 339.786 151.213 340.625 150.919L358.233 144.588H358.215Z" fill="#161616"/>
<path d="M370.73 177.55L371.314 179.777C370.347 179.427 369.434 179.354 368.577 179.593L348.068 185.261L347.812 184.249L365.147 164.243C364.891 164.262 364.727 164.28 364.636 164.317L346.626 169.305C346.243 169.415 345.86 169.599 345.477 169.857C345.094 170.114 344.82 170.354 344.656 170.574L344.346 170.869L343.762 168.642C344.729 168.992 345.641 169.065 346.499 168.826L364.508 163.838C365.037 163.691 365.603 163.397 366.241 162.955L366.843 162.458L367.427 164.703L350.714 183.992L368.467 179.077C368.851 178.967 369.234 178.783 369.617 178.525C370 178.268 370.292 178.028 370.474 177.808L370.748 177.513L370.73 177.55Z" fill="#161616"/>
<path d="M373.136 201.145C373.246 201.052 373.374 200.905 373.556 200.721C373.72 200.537 373.921 200.187 374.176 199.654C374.432 199.12 374.487 198.623 374.414 198.163L373.574 193.727L353.193 197.813C352.81 197.887 352.408 198.053 352.025 198.292C351.624 198.531 351.332 198.752 351.149 198.954L350.839 199.267L350.109 195.329C351.058 195.807 351.97 195.954 352.828 195.77L373.209 191.685L372.37 187.249C372.279 186.77 372.042 186.347 371.677 185.979C371.312 185.611 370.947 185.335 370.618 185.206L370.126 184.985L372.607 184.728C372.607 185.537 372.68 186.347 372.844 187.157L374.888 198.053L375.563 200.408L373.173 201.145H373.136Z" fill="#161616"/>
<path d="M376.696 232.065C376.805 231.991 376.969 231.862 377.152 231.678C377.334 231.513 377.571 231.181 377.863 230.684C378.155 230.187 378.283 229.709 378.228 229.212L377.809 224.703L357.154 226.746C356.752 226.783 356.351 226.911 355.931 227.114C355.512 227.316 355.201 227.519 355.001 227.703L354.654 227.979L354.289 224.003C355.183 224.574 356.077 224.813 356.953 224.721L377.608 222.678L377.188 218.169C377.152 217.691 376.951 217.231 376.623 216.826C376.294 216.421 375.966 216.126 375.656 215.942L375.181 215.685H377.681C377.608 216.476 377.608 217.304 377.681 218.132L378.703 229.194L379.159 231.605L376.714 232.083L376.696 232.065Z" fill="#161616"/>
<path d="M376.15 238.451C378.631 240.641 379.909 243.346 380 246.549C380.091 249.751 378.942 252.512 376.588 254.849C374.234 257.187 371.351 258.401 367.939 258.493C364.527 258.585 361.589 257.536 359.126 255.346C356.663 253.156 355.385 250.45 355.294 247.248C355.203 244.046 356.334 241.285 358.688 238.948C361.042 236.61 363.906 235.395 367.319 235.303C370.731 235.211 373.668 236.26 376.15 238.451ZM356.097 248.297C356.17 250.855 357.356 252.898 359.655 254.444C361.954 255.99 364.691 256.561 367.884 256.174C371.077 255.806 373.778 254.573 375.986 252.475C378.175 250.377 379.233 248.039 379.179 245.463C379.106 242.905 377.938 240.862 375.639 239.316C373.34 237.77 370.603 237.199 367.392 237.586C364.217 237.954 361.516 239.187 359.308 241.285C357.101 243.383 356.042 245.72 356.097 248.297Z" fill="#161616"/>
<path d="M378.174 288.972L377.992 291.291C377.536 290.721 376.715 290.04 375.547 289.285L365.238 282.622L357.41 281.978C357.009 281.942 356.589 281.997 356.151 282.144C355.713 282.273 355.366 282.42 355.129 282.567L354.746 282.788L355.056 278.721C355.841 279.457 356.68 279.862 357.574 279.935L364.855 280.524L376.624 275.371C377.025 275.187 377.463 274.985 377.919 274.727C378.375 274.469 378.722 274.248 378.996 274.064L379.342 273.807L379.069 277.524C378.302 277.23 377.426 277.304 376.459 277.727L365.767 282.383L375.62 288.733C376.021 288.991 376.441 289.138 376.861 289.175C377.299 289.211 377.627 289.175 377.846 289.119L378.193 288.972H378.174Z" fill="#161616"/>
<path d="M374.143 297.014C376.224 299.628 377.026 302.517 376.57 305.683C376.114 308.848 374.527 311.37 371.808 313.229C369.089 315.088 366.042 315.769 362.666 315.253C359.291 314.738 356.59 313.174 354.529 310.56C352.467 307.947 351.664 305.075 352.12 301.91C352.576 298.744 354.164 296.223 356.864 294.346C359.565 292.468 362.612 291.806 365.987 292.321C369.363 292.836 372.082 294.401 374.143 297.014ZM352.74 303.088C352.376 305.609 353.197 307.836 355.204 309.787C357.211 311.738 359.802 312.787 362.995 312.99C366.206 313.21 369.071 312.474 371.589 310.818C374.107 309.161 375.548 307.045 375.913 304.505C376.278 301.984 375.457 299.757 373.468 297.806C371.479 295.855 368.87 294.806 365.659 294.603C362.466 294.382 359.601 295.119 357.083 296.775C354.547 298.431 353.105 300.548 352.74 303.088Z" fill="#161616"/>
<path d="M370.565 323.076C370.948 323.168 371.368 323.186 371.824 323.131C372.28 323.076 372.645 323.002 372.919 322.892L373.302 322.726L372.426 326.628C371.751 325.8 370.984 325.284 370.109 325.063L357.081 321.935C352.045 320.72 349.089 322.156 348.158 326.223C347.738 328.045 348.049 329.738 349.052 331.303C350.056 332.849 351.826 333.935 354.344 334.542L367.262 337.652C367.645 337.744 368.065 337.763 368.521 337.726C368.977 337.689 369.342 337.615 369.616 337.505L369.981 337.376L369.47 339.622C368.777 338.83 368.01 338.333 367.134 338.131L354.216 335.02C353.632 334.892 353.066 334.708 352.519 334.487C351.953 334.266 351.296 333.916 350.53 333.419C349.764 332.922 349.143 332.352 348.651 331.708C348.158 331.045 347.811 330.198 347.592 329.113C347.374 328.027 347.41 326.849 347.72 325.524C348.833 320.573 352.099 318.714 357.5 319.947L370.528 323.076H370.565Z" fill="#161616"/>
<path d="M347.975 352.008C347.409 351.971 346.789 351.916 346.114 351.805C345.438 351.713 344.873 351.621 344.471 351.548C344.07 351.474 343.614 351.419 343.158 351.4C342.701 351.382 342.318 351.4 342.026 351.456C341.734 351.511 341.479 351.658 341.242 351.879C341.005 352.1 340.84 352.394 340.731 352.762L340.348 352.633C340.676 351.548 341.26 350.701 342.081 350.075C342.92 349.449 344.052 349.247 345.475 349.468C348.011 349.873 349.799 349.873 350.803 349.486C351.806 349.1 352.591 348.014 353.12 346.229L353.923 343.578L346.916 341.333C346.533 341.204 346.114 341.167 345.657 341.186C345.201 341.204 344.836 341.278 344.563 341.388L344.143 341.499L345.311 337.615C345.913 338.517 346.643 339.106 347.5 339.364L365.309 345.051C365.692 345.18 366.112 345.216 366.568 345.18C367.024 345.143 367.407 345.088 367.681 345.014L368.064 344.885L366.768 349.21C366.203 351.069 365.546 352.597 364.78 353.775C364.013 354.952 363.192 355.744 362.335 356.186C361.477 356.609 360.656 356.848 359.871 356.885C359.087 356.922 358.302 356.811 357.463 356.554C353.795 355.376 352.208 352.707 352.646 348.529C351.697 350.995 350.146 352.155 347.956 351.989L347.975 352.008ZM354.379 343.744L353.576 346.394C353.23 347.517 353.157 348.566 353.321 349.505C353.485 350.443 353.85 351.235 354.397 351.86C354.945 352.486 355.529 352.983 356.149 353.37C356.769 353.756 357.445 354.051 358.174 354.29C360.127 354.916 361.824 354.713 363.247 353.664C364.67 352.615 365.71 351.032 366.331 348.934L366.695 347.701L354.343 343.744H354.379Z" fill="#161616"/>
<path d="M346.736 401.13L345.659 403.523C345.477 402.916 344.874 402.124 343.871 401.13L327.613 384.713L327.814 384.272L344.528 385.928L332.522 373.836L332.722 373.395L355.366 375.677C355.986 375.75 356.552 375.769 357.045 375.714C357.537 375.677 357.884 375.621 358.085 375.566L358.34 375.456L356.808 378.824C356.808 378.824 356.68 378.658 356.57 378.548C356.461 378.437 356.187 378.253 355.767 378.014C355.348 377.756 354.928 377.628 354.49 377.628L335.003 375.677L345.258 386.002L350.458 386.554C351.078 386.627 351.644 386.627 352.136 386.591C352.629 386.554 352.976 386.499 353.177 386.443L353.432 386.333L351.899 389.701C351.899 389.701 351.772 389.535 351.662 389.425C351.553 389.315 351.279 389.131 350.859 388.891C350.44 388.634 350.02 388.505 349.582 388.505L330.095 386.554L344.09 400.652C344.473 401.002 344.874 401.204 345.258 401.278C345.641 401.351 345.987 401.351 346.298 401.278L346.736 401.149V401.13Z" fill="#161616"/>
<path d="M340.039 407.737C340.386 407.94 340.769 408.087 341.225 408.179C341.682 408.253 342.065 408.289 342.357 408.289L342.758 408.253L337.193 417.786L336.171 419.995L333.927 418.872C334.073 418.872 334.255 418.872 334.511 418.854C334.748 418.835 335.131 418.707 335.66 418.486C336.171 418.265 336.554 417.952 336.81 417.529L340.842 410.608L333.16 405.823L330.241 410.829C330.059 411.142 329.931 411.529 329.858 411.952C329.785 412.394 329.785 412.743 329.821 413.001V413.424L327.778 412.136C328.727 411.805 329.402 411.271 329.821 410.572L332.741 405.566L323.07 399.529C322.614 399.234 322.14 399.069 321.647 399.032C321.154 398.995 320.808 399.161 320.589 399.529L317.268 405.216C316.976 405.713 316.775 406.21 316.666 406.707C316.556 407.204 316.52 407.645 316.556 407.995C316.593 408.345 316.647 408.676 316.739 408.989C316.83 409.283 316.921 409.504 317.031 409.67L317.158 409.909L314.969 408.179L322.359 395.517C322.742 396.547 323.307 397.283 324.074 397.762L340.039 407.701V407.737Z" fill="#161616"/>
<path d="M329.129 430.301C327.98 431.921 326.702 433.191 325.334 434.111C323.965 435.031 322.67 435.583 321.466 435.786C320.261 435.97 319.039 435.97 317.798 435.749C316.557 435.528 315.499 435.197 314.623 434.773C313.747 434.35 312.945 433.853 312.215 433.283C311.503 432.749 310.81 432.086 310.171 431.35C309.533 430.614 308.93 429.639 308.365 428.461C307.817 427.283 307.452 426.05 307.288 424.78C307.124 423.51 307.27 422.037 307.708 420.399C308.164 418.761 308.967 417.123 310.116 415.485L312.926 411.528C313.237 412.559 313.747 413.35 314.459 413.903L329.494 425.295C329.804 425.534 330.187 425.718 330.644 425.866C331.082 425.994 331.446 426.068 331.738 426.086H332.14L329.129 430.338V430.301ZM310.5 415.761C308.766 418.191 308.201 420.933 308.803 423.97C309.405 427.007 310.974 429.491 313.528 431.424C316.393 433.596 319.24 434.479 322.068 434.056C324.896 433.632 327.177 432.197 328.947 429.712L330.023 428.203L313.291 415.522C312.16 414.657 311.229 414.731 310.518 415.743L310.5 415.761Z" fill="#161616"/>
<path d="M314.658 449.203C313.345 450.693 311.958 451.816 310.498 452.589C309.039 453.362 307.707 453.767 306.484 453.822C305.262 453.877 304.039 453.73 302.835 453.38C301.631 453.031 300.609 452.589 299.788 452.074C298.967 451.558 298.218 450.969 297.543 450.344C296.886 449.718 296.266 449.019 295.7 448.19C295.135 447.381 294.642 446.35 294.204 445.117C293.766 443.884 293.547 442.614 293.511 441.325C293.474 440.037 293.766 438.602 294.368 437.019C294.989 435.436 295.938 433.89 297.251 432.399L300.445 428.773C300.645 429.841 301.065 430.688 301.722 431.295L315.516 444.252C315.808 444.528 316.173 444.749 316.593 444.933C317.012 445.117 317.377 445.227 317.669 445.282L318.071 445.338L314.64 449.221L314.658 449.203ZM297.616 432.73C295.646 434.957 294.806 437.626 295.098 440.718C295.39 443.81 296.704 446.442 299.04 448.651C301.667 451.117 304.422 452.295 307.269 452.184C310.115 452.074 312.542 450.877 314.531 448.614L315.753 447.215L300.39 432.786C299.35 431.81 298.419 431.792 297.598 432.712L297.616 432.73Z" fill="#161616"/>
<path d="M299.622 461.424C299.896 461.718 300.243 461.976 300.663 462.178C301.082 462.381 301.429 462.528 301.721 462.601L302.122 462.693L299.276 465.454C299.166 464.368 298.801 463.503 298.199 462.841L285.463 448.779C285.19 448.485 284.861 448.227 284.441 448.007C284.022 447.786 283.693 447.657 283.42 447.602L283 447.491L285.846 444.73C285.938 445.816 286.303 446.7 286.905 447.381L299.641 461.442L299.622 461.424Z" fill="#161616"/>
<path d="M282.618 479.682L280.866 481.099C280.811 480.05 280.501 479.148 279.954 478.43L266.871 461.148L267.674 460.504L292.27 469.154C292.161 468.933 292.069 468.768 291.996 468.694L280.501 453.529C280.264 453.216 279.936 452.921 279.571 452.664C279.187 452.406 278.877 452.24 278.604 452.148L278.22 451.983L279.972 450.565C280.027 451.614 280.337 452.516 280.884 453.234L292.38 468.4C292.708 468.841 293.201 469.265 293.839 469.706L294.514 470.093L292.745 471.528L269.024 463.191L280.355 478.136C280.592 478.449 280.921 478.743 281.286 479.001C281.669 479.258 281.997 479.442 282.271 479.534L282.636 479.682H282.618Z" fill="#161616"/>
<path d="M269.536 474.271C271.325 477.473 271.89 480.675 271.215 483.859C270.54 487.043 268.77 489.491 265.942 491.185C265.103 491.681 264.281 492.05 263.46 492.27C262.639 492.491 261.928 492.583 261.344 492.565C260.76 492.528 260.231 492.454 259.775 492.344C259.318 492.234 258.99 492.105 258.753 491.976L258.406 491.773L260.705 490.393C260.705 490.393 260.851 490.504 260.961 490.577C261.07 490.651 261.326 490.743 261.709 490.872C262.092 491 262.493 491.074 262.913 491.074C263.333 491.074 263.88 491 264.555 490.835C265.23 490.669 265.905 490.356 266.599 489.933C268.515 488.792 269.591 486.878 269.81 484.209C270.011 481.54 269.336 478.725 267.748 475.761C266.197 472.798 264.026 470.719 261.271 469.504C258.516 468.289 255.888 468.436 253.388 469.927C252.421 470.516 251.618 471.326 251.016 472.357C250.414 473.406 250.305 474.289 250.706 475.007L253.844 480.602C254.045 480.952 254.319 481.283 254.666 481.596C255.012 481.909 255.322 482.111 255.56 482.221L255.925 482.405L254.173 485.313L248.918 475.927C248.918 475.817 248.918 475.669 248.954 475.467C248.991 475.264 249.1 474.878 249.283 474.289C249.465 473.7 249.739 473.13 250.068 472.559C250.396 471.988 250.925 471.344 251.655 470.626C252.385 469.909 253.242 469.246 254.228 468.657C256.873 467.074 259.647 466.817 262.53 467.884C265.413 468.952 267.748 471.068 269.536 474.252V474.271Z" fill="#161616"/>
<path d="M237.219 503.939C235.358 504.528 233.606 504.767 231.964 504.657C230.322 504.546 228.972 504.197 227.895 503.608C226.819 503.019 225.833 502.246 224.976 501.307C224.118 500.369 223.443 499.448 223.005 498.565C222.549 497.682 222.202 496.78 221.929 495.878C221.673 494.994 221.491 494.056 221.418 493.062C221.326 492.068 221.418 490.909 221.655 489.62C221.892 488.332 222.312 487.117 222.914 485.995C223.516 484.872 224.483 483.786 225.797 482.737C227.111 481.688 228.698 480.878 230.559 480.289L235.102 478.854C234.756 479.866 234.701 480.823 234.956 481.706L240.43 500.111C240.54 500.497 240.741 500.884 241.014 501.27C241.288 501.657 241.543 501.933 241.762 502.135L242.091 502.393L237.219 503.939ZM230.687 480.786C227.895 481.669 225.852 483.51 224.574 486.326C223.297 489.142 223.115 492.105 224.045 495.215C225.085 498.731 226.873 501.197 229.373 502.596C231.891 503.994 234.555 504.252 237.383 503.35L239.117 502.798L233.022 482.295C232.603 480.896 231.818 480.4 230.669 480.768L230.687 480.786Z" fill="#161616"/>
<path d="M198.172 487.337L202.04 486.748C201.693 487.319 201.839 488.202 202.478 489.399L205.124 494.386L215.05 492.877L216.236 487.319C216.327 486.656 216.291 486.141 216.126 485.773C215.962 485.405 215.761 485.147 215.506 485L215.141 484.779L217.878 484.374C217.385 485 216.984 485.957 216.728 487.264L212.386 507.84L213.17 509.312L210.798 510.785C211.017 510.141 210.853 509.276 210.287 508.19L200.361 489.73C200.142 489.306 199.851 488.883 199.486 488.497C199.121 488.092 198.81 487.816 198.555 487.613L198.172 487.356V487.337ZM214.959 493.392L205.397 494.846L212.021 507.233L214.977 493.411L214.959 493.392Z" fill="#161616"/>
<path d="M185.255 511.963L182.992 512.018C183.503 511.503 184.069 510.583 184.689 509.294L190.072 498.031L189.908 489.914C189.908 489.509 189.798 489.086 189.634 488.644C189.451 488.203 189.287 487.871 189.123 487.65L188.886 487.264L192.827 487.172C192.188 488.055 191.896 488.957 191.915 489.877L192.079 497.423L198.228 509C198.447 509.405 198.684 509.828 198.976 510.27C199.268 510.711 199.523 511.061 199.724 511.3L199.998 511.632L196.385 511.705C196.586 510.877 196.44 509.994 195.929 509.037L190.382 498.509L185.255 509.276C185.036 509.718 184.945 510.159 184.945 510.601C184.945 511.043 184.999 511.392 185.109 511.613L185.291 511.945L185.255 511.963Z" fill="#161616"/>
<path d="M180.62 489.234L178.668 489.087L181.66 483.528H181.989L180.62 489.252V489.234Z" fill="#161616"/>
<path d="M132.906 500.699L130.461 499.908C131.027 499.631 131.702 498.914 132.523 497.773L146.153 478.981L146.609 479.129L147.193 496.466L157.228 482.607L157.685 482.754L158.433 506.257C158.433 506.901 158.506 507.472 158.615 507.987C158.725 508.484 158.816 508.834 158.907 509.018L159.053 509.257L155.623 508.134C155.623 508.134 155.769 507.987 155.86 507.84C155.951 507.693 156.079 507.417 156.28 506.957C156.48 506.496 156.535 506.036 156.48 505.595L155.823 485.386L147.248 497.239L147.394 502.631C147.394 503.276 147.467 503.846 147.576 504.362C147.686 504.858 147.777 505.208 147.85 505.392L147.996 505.631L144.565 504.509C144.565 504.509 144.711 504.361 144.803 504.214C144.894 504.085 145.022 503.791 145.222 503.331C145.405 502.871 145.478 502.411 145.423 501.969L144.766 481.761L133.07 497.938C132.796 498.38 132.651 498.803 132.632 499.208C132.614 499.613 132.669 499.981 132.778 500.276L132.961 500.699H132.906Z" fill="#161616"/>
<path d="M124.821 493.632C124.639 494 124.511 494.405 124.456 494.884C124.402 495.362 124.383 495.749 124.402 496.043L124.456 496.466L114.932 491.239L112.742 490.301L113.691 487.927C113.691 488.074 113.709 488.276 113.746 488.515C113.782 488.773 113.928 489.16 114.165 489.675C114.403 490.19 114.731 490.577 115.151 490.798L122.066 494.589L126.263 486.399L121.263 483.657C120.953 483.491 120.57 483.381 120.15 483.325C119.731 483.289 119.384 483.289 119.128 483.344L118.727 483.381L119.858 481.19C120.223 482.148 120.771 482.828 121.482 483.215L126.482 485.957L131.773 475.632C132.029 475.135 132.156 474.638 132.175 474.141C132.175 473.645 132.01 473.295 131.627 473.092L125.934 469.982C125.442 469.706 124.949 469.54 124.456 469.448C123.964 469.375 123.544 469.356 123.197 469.411C122.851 469.467 122.541 469.54 122.249 469.651C121.975 469.761 121.756 469.872 121.61 470L121.391 470.129L122.942 467.773L135.587 474.712C134.62 475.154 133.926 475.798 133.507 476.608L124.767 493.614L124.821 493.632Z" fill="#161616"/>
<path d="M108.49 481.007L108.782 481.191L106.447 486.51L104.805 485.424L108.509 481.007H108.49Z" fill="#161616"/>
<path d="M100.319 459.657C100.538 459.123 100.811 458.553 101.14 457.927C101.468 457.301 101.724 456.786 101.943 456.418C102.162 456.031 102.344 455.626 102.527 455.203C102.709 454.761 102.819 454.393 102.855 454.099C102.892 453.804 102.855 453.491 102.746 453.197C102.636 452.902 102.417 452.626 102.125 452.387L102.381 452.056C103.256 452.737 103.822 453.602 104.114 454.614C104.388 455.645 104.187 456.804 103.494 458.129C102.253 460.448 101.633 462.178 101.633 463.283C101.633 464.387 102.362 465.51 103.804 466.651L105.939 468.344L110.391 462.325C110.628 461.994 110.81 461.608 110.956 461.166C111.102 460.706 111.157 460.338 111.157 460.043L111.194 459.583L114.332 462.049C113.31 462.325 112.526 462.841 111.978 463.559L100.665 478.853C100.428 479.184 100.246 479.571 100.118 480.031C99.9904 480.491 99.9174 480.877 99.8809 481.172V481.595L96.3776 478.853C94.8814 477.675 93.7318 476.497 92.929 475.356C92.1262 474.215 91.67 473.147 91.597 472.154C91.5058 471.16 91.5788 470.295 91.7977 469.522C92.0349 468.749 92.3998 468.013 92.929 467.313C95.2463 464.166 98.2387 463.54 101.888 465.417C99.9721 463.651 99.4612 461.737 100.355 459.675L100.319 459.657ZM105.629 468.712L103.494 467.019C102.581 466.301 101.669 465.859 100.757 465.694C99.8444 465.528 99.0051 465.62 98.2569 465.933C97.5088 466.246 96.8337 466.651 96.2863 467.111C95.7207 467.589 95.2098 468.141 94.7536 468.767C93.5129 470.442 93.1115 472.172 93.5859 473.902C94.042 475.65 95.1186 477.196 96.8155 478.522L97.8008 479.295L105.647 468.675L105.629 468.712Z" fill="#161616"/>
<path d="M83.932 465.013C83.6583 465.307 83.4394 465.676 83.2569 466.117C83.0744 466.559 82.965 466.927 82.9102 467.222L82.8555 467.645L75.0643 459.952L73.2031 458.443L74.7541 456.418C74.7176 456.565 74.6811 456.749 74.6446 457.007C74.6081 457.265 74.6446 457.67 74.7358 458.24C74.8271 458.811 75.046 459.271 75.3927 459.602L81.0491 465.179L87.2529 458.479L83.1657 454.43C82.9102 454.173 82.5818 453.97 82.1804 453.805C81.7789 453.639 81.4505 453.547 81.1951 453.547L80.7936 453.473L82.4541 451.67C82.5635 452.7 82.9102 453.492 83.4941 454.081L87.5813 458.13L95.3908 449.7C95.774 449.295 96.0294 448.854 96.1754 448.375C96.3213 447.897 96.2301 447.51 95.9382 447.197L91.2853 442.596C90.8839 442.191 90.446 441.878 89.9898 441.676C89.5337 441.455 89.1323 441.326 88.7856 441.289C88.4389 441.253 88.1105 441.234 87.8185 441.253C87.5266 441.271 87.2894 441.326 87.1251 441.4L86.8697 441.473L88.9863 439.651L99.332 449.884C98.2737 450.05 97.4526 450.455 96.8322 451.117L83.9503 465.031L83.932 465.013Z" fill="#161616"/>
<path d="M44.8478 421.798L43.3516 419.663C43.9537 419.792 44.9208 419.626 46.2345 419.221L68.0207 412.485L68.2944 412.872L58.788 427.172L74.8449 422.185L75.1186 422.571L62.2001 441.933C61.8352 442.467 61.5615 442.964 61.3608 443.424C61.1601 443.902 61.0323 444.233 60.9959 444.436L60.9594 444.712L58.8428 441.694C58.8428 441.694 59.0435 441.657 59.1895 441.602C59.3354 441.546 59.6091 441.399 60.0288 441.141C60.4485 440.884 60.7586 440.571 60.9776 440.166L72.0714 423.51L58.3501 427.78L55.376 432.215C55.011 432.749 54.7373 433.246 54.5366 433.706C54.3359 434.184 54.2082 434.516 54.1717 434.718L54.1352 434.994L52.0186 431.976C52.0186 431.976 52.2193 431.939 52.3653 431.884C52.5113 431.829 52.785 431.681 53.2046 431.424C53.6243 431.166 53.9345 430.853 54.1534 430.467L65.2473 413.81L46.5264 419.626C46.052 419.81 45.6871 420.068 45.4317 420.381C45.1762 420.694 45.012 421.007 44.939 421.338L44.8478 421.798Z" fill="#161616"/>
<path d="M42.566 412.32C42.2193 412.523 41.9091 412.817 41.6172 413.204C41.3253 413.59 41.1246 413.903 40.9968 414.179L40.8326 414.566L38.8438 411.087C39.8838 411.198 40.7961 411.032 41.5625 410.553L57.6011 400.744C57.9478 400.541 58.2579 400.247 58.5499 399.879C58.8418 399.511 59.0425 399.198 59.152 398.94L59.3527 398.535L61.3416 402.014C60.2833 401.885 59.371 402.05 58.6046 402.511L42.566 412.32Z" fill="#161616"/>
<path d="M31.0189 391.063C30.9459 391.174 30.8547 391.358 30.7452 391.578C30.6358 391.799 30.5445 392.204 30.4533 392.775C30.3621 393.345 30.435 393.842 30.6358 394.284L32.6429 398.296L51.0717 388.45C51.4184 388.266 51.7469 387.99 52.0571 387.64C52.3672 387.29 52.5862 386.996 52.7139 386.738L52.9329 386.352L54.721 389.904C53.681 389.72 52.7687 389.848 51.9841 390.272L33.5552 400.118L35.5623 404.13C35.7812 404.572 36.1097 404.903 36.5841 405.161C37.0402 405.419 37.4417 405.566 37.8066 405.603L38.3357 405.676L36.0184 406.634C35.7995 405.861 35.5075 405.106 35.1244 404.37L30.1796 394.505L28.9023 392.444L31.0007 391.045L31.0189 391.063Z" fill="#161616"/>
<path d="M39.61 362.039C39.975 361.873 40.3216 361.652 40.6683 361.321C41.015 361.008 41.2522 360.714 41.3982 360.475L41.6536 360.106L43.1316 363.806C42.1098 363.53 41.1975 363.585 40.3764 363.935L31.983 367.524L36.7453 379.395L45.1387 375.806C45.5036 375.64 45.8503 375.401 46.197 375.088C46.5437 374.775 46.7809 374.48 46.9268 374.241L47.1823 373.873L48.6603 377.572C47.6385 377.315 46.7261 377.352 45.905 377.701L28.6987 385.082C28.3337 385.229 27.9871 385.468 27.6404 385.799C27.2937 386.112 27.0565 386.407 26.874 386.646L26.6551 386.996L25.1771 383.296C26.1989 383.554 27.1112 383.517 27.9323 383.168L36.3257 379.579L31.5634 367.726L23.17 371.315C22.8051 371.481 22.4584 371.701 22.1117 372.033C21.765 372.364 21.5278 372.64 21.3454 372.879L21.1264 373.229L19.6484 369.53C20.6702 369.806 21.5826 369.751 22.4036 369.401L39.61 362.021V362.039Z" fill="#161616"/>
<path d="M10.4915 339.604L9.87109 337.358C10.4915 337.726 11.4768 338.058 12.8453 338.371L24.7602 340.91L32.3142 338.683C32.6974 338.573 33.0623 338.371 33.4455 338.076C33.8286 337.782 34.0841 337.524 34.2483 337.322L34.5403 336.99L35.6168 340.91C34.6315 340.506 33.7009 340.432 32.8616 340.671L25.8367 342.732L16.5493 351.806C16.2208 352.119 15.8924 352.469 15.5457 352.873C15.199 353.278 14.9436 353.61 14.7611 353.886L14.5057 354.254L13.5204 350.665C14.3415 350.665 15.1443 350.278 15.9107 349.524L24.3588 341.315L12.9912 338.904C12.5168 338.794 12.0789 338.812 11.6592 338.941C11.2396 339.07 10.9476 339.199 10.7469 339.346L10.4732 339.604H10.4915Z" fill="#161616"/>
<path d="M11.5682 330.603C8.7583 328.892 7.04313 326.481 6.40451 323.333C5.78413 320.205 6.42276 317.278 8.35688 314.554C10.291 311.831 12.9185 310.119 16.2576 309.401C19.5967 308.683 22.6621 309.18 25.472 310.892C28.282 312.604 29.9971 315.033 30.6175 318.162C31.2379 321.291 30.6175 324.217 28.6834 326.941C26.7675 329.665 24.14 331.376 20.8009 332.094C17.4618 332.812 14.3782 332.315 11.5682 330.603ZM29.6322 317.278C29.1395 314.775 27.6251 312.972 25.0888 311.867C22.5526 310.763 19.7609 310.689 16.6955 311.646C13.6118 312.585 11.1668 314.297 9.36043 316.745C7.55403 319.211 6.91541 321.695 7.40806 324.217C7.90072 326.72 9.41517 328.524 11.9332 329.628C14.4512 330.732 17.2611 330.806 20.3448 329.849C23.4102 328.91 25.8552 327.217 27.6616 324.751C29.4862 322.284 30.1249 319.8 29.6322 317.278Z" fill="#161616"/>
<path d="M6.21914 304.818C5.81772 304.874 5.4163 305.002 5.01488 305.223C4.61346 305.444 4.28502 305.647 4.06606 305.831L3.75587 306.125L3.28147 302.15C4.19379 302.683 5.08786 302.904 5.96369 302.775L19.2288 301.064C24.3561 300.401 26.6551 298.009 26.1625 293.849C25.9435 291.99 25.0859 290.5 23.6262 289.414C22.1665 288.309 20.1412 287.923 17.5684 288.273L4.41274 289.966C4.02957 290.021 3.62815 290.15 3.20848 290.352C2.80706 290.555 2.47862 290.757 2.25967 290.941L1.94948 291.199L1.67578 288.917C2.5881 289.414 3.48218 289.598 4.35801 289.487L17.5137 287.794C18.0976 287.72 18.6997 287.684 19.3018 287.684C19.904 287.684 20.6338 287.794 21.5279 287.978C22.4037 288.162 23.1883 288.475 23.8634 288.917C24.5385 289.358 25.1589 290.039 25.7246 290.978C26.2902 291.917 26.6551 293.039 26.8011 294.383C27.4032 299.426 24.9765 302.334 19.4843 303.107L6.21914 304.818Z" fill="#161616"/>
<path d="M3.1371 271.469C2.73568 271.469 2.33426 271.579 1.89634 271.763C1.45843 271.947 1.12999 272.131 0.89279 272.297L0.564354 272.555L0.272412 261.42L-0.0195312 258.99L2.46198 258.678C2.33426 258.751 2.18829 258.862 1.98758 259.027C1.78686 259.193 1.53141 259.506 1.22123 259.966C0.911036 260.426 0.746818 260.923 0.765065 261.401L0.965776 269.481L9.92477 269.223L9.7788 263.371C9.7788 263.003 9.68757 262.616 9.5051 262.211C9.34088 261.806 9.15842 261.512 8.97596 261.309L8.73875 260.96L11.1473 260.886C10.5269 261.696 10.235 262.506 10.2532 263.352L10.3992 269.205L21.6937 268.892C22.2411 268.892 22.7155 268.763 23.1534 268.524C23.5731 268.285 23.7921 267.954 23.7738 267.512L23.6096 260.868C23.6096 260.279 23.5001 259.763 23.3176 259.266C23.1534 258.788 22.9527 258.401 22.7338 258.125C22.5148 257.849 22.2958 257.592 22.0586 257.389C21.8214 257.187 21.639 257.058 21.4565 256.984L21.2376 256.855L23.9928 257.095L24.3759 271.874C23.5184 271.23 22.6425 270.917 21.7485 270.935L3.11885 271.45L3.1371 271.469Z" fill="#161616"/>
<path d="M0.727132 236.721L0.818364 234.107C1.21979 234.568 2.07737 235.046 3.35462 235.561L24.5205 244.12V244.598L2.78898 251.61C2.18685 251.794 1.67595 252.015 1.21979 252.254C0.781871 252.494 0.489928 252.678 0.325711 252.807L0.125 253.009L0.252725 249.291C0.252725 249.291 0.435189 249.383 0.581161 249.439C0.727132 249.494 1.03732 249.549 1.51173 249.604C1.98614 249.678 2.42405 249.604 2.82547 249.439L21.5463 243.383L3.29988 236.04C2.80722 235.874 2.36931 235.856 1.98614 235.929C1.60296 236.022 1.27452 236.169 1.01907 236.371L0.672393 236.666L0.727132 236.721Z" fill="#161616"/>
<path d="M3.8671 228.605C3.48393 228.568 3.04601 228.605 2.6081 228.733C2.17019 228.862 1.80526 228.991 1.54981 229.12L1.20312 229.322L2.27966 218.243V215.795H4.79767C4.66995 215.85 4.50573 215.942 4.28677 216.071C4.08606 216.2 3.77587 216.476 3.41094 216.899C3.04601 217.323 2.82706 217.783 2.77232 218.261L1.98772 226.286L10.9102 227.224L11.4759 221.408C11.5124 221.04 11.4759 220.654 11.3481 220.23C11.2204 219.807 11.0927 219.494 10.9467 219.255L10.7643 218.887L13.1545 219.145C12.4429 219.862 12.0415 220.635 11.9685 221.464L11.4029 227.279L22.6427 228.457C23.1901 228.513 23.6827 228.457 24.1389 228.273C24.595 228.089 24.8322 227.795 24.887 227.353L25.5256 220.746C25.5803 220.175 25.5621 219.623 25.4344 219.126C25.3249 218.629 25.1789 218.224 24.9965 217.911C24.814 217.599 24.6315 217.323 24.4308 217.102C24.2301 216.862 24.0476 216.715 23.8834 216.623L23.6827 216.457L26.3832 217.046L24.9417 231.77C24.1754 231.016 23.336 230.592 22.4602 230.5L3.92184 228.568L3.8671 228.605Z" fill="#161616"/>
<path d="M22.3161 199.139C22.8817 199.102 23.5021 199.065 24.1955 199.065C24.8888 199.065 25.4362 199.065 25.8559 199.084C26.2755 199.084 26.7135 199.084 27.1696 199.047C27.6258 199.01 27.9907 198.937 28.2827 198.826C28.5563 198.716 28.8118 198.55 29.0125 198.292C29.2132 198.053 29.3409 197.722 29.4139 197.335L29.8154 197.409C29.6329 198.532 29.1767 199.452 28.4286 200.188C27.6805 200.924 26.5857 201.274 25.1443 201.274C22.5715 201.237 20.8199 201.476 19.8711 201.992C18.9222 202.507 18.3019 203.703 18.0099 205.562L17.572 208.305L24.8158 209.538C25.199 209.611 25.6187 209.593 26.0748 209.501C26.531 209.409 26.8777 209.298 27.1331 209.151L27.5345 208.967L26.8959 212.979C26.1661 212.17 25.3815 211.691 24.4874 211.544L6.095 208.397C5.71183 208.323 5.27391 208.341 4.836 208.452C4.37984 208.544 4.01491 208.654 3.75946 208.783L3.39453 208.967L4.10614 204.495C4.41633 202.581 4.87249 200.979 5.47462 199.71C6.07676 198.44 6.78837 197.538 7.59121 196.986C8.39405 196.434 9.17865 196.084 9.945 195.937C10.7113 195.789 11.5142 195.789 12.3718 195.937C16.1488 196.581 18.0829 199.01 18.1924 203.206C18.8128 200.63 20.1995 199.268 22.3708 199.121L22.3161 199.139ZM17.0611 208.231L17.499 205.489C17.6815 204.329 17.6267 203.28 17.3348 202.378C17.0429 201.476 16.5867 200.74 15.9481 200.206C15.3094 199.673 14.6708 199.249 14.0139 198.955C13.3388 198.66 12.6455 198.458 11.8791 198.329C9.85377 197.98 8.21159 198.44 6.93434 199.673C5.65709 200.906 4.85425 202.617 4.50756 204.789L4.30685 206.059L17.0611 208.249V208.231Z" fill="#161616"/>
<path d="M9.61639 175.894L10.1273 173.611C10.4922 174.237 11.2038 175.028 12.2621 175.967L21.5131 184.12L29.1766 185.924C29.5597 186.016 29.9794 186.034 30.4356 185.961C30.8917 185.887 31.2566 185.795 31.4938 185.703L31.9135 185.556L31.0377 189.531C30.3626 188.685 29.5962 188.151 28.7204 187.949L21.6043 186.274L9.23321 189.605C8.81354 189.715 8.33914 189.863 7.86473 190.047C7.37208 190.231 6.9889 190.396 6.71521 190.544L6.33203 190.746L7.13487 187.12C7.84648 187.525 8.72231 187.599 9.76236 187.304L20.9839 184.323L12.1344 176.556C11.7695 176.225 11.3863 176.022 10.9666 175.93C10.547 175.838 10.2185 175.801 9.98132 175.838L9.61639 175.93V175.894Z" fill="#161616"/>
<path d="M39.5555 158.243C40.0481 156.605 40.0116 155.041 39.4277 153.569C38.8439 152.096 37.7491 151.066 36.1069 150.495C35.0486 150.127 33.9903 150.219 32.932 150.79C31.8555 151.36 30.8702 152.207 29.9579 153.293C29.0455 154.378 28.1332 155.464 27.2391 156.569C26.3268 157.673 25.3415 158.575 24.265 159.274C23.1884 159.992 22.1301 160.231 21.1083 160.047C18.9188 159.642 17.4408 158.464 16.638 156.513C15.8534 154.581 15.7804 152.612 16.4373 150.642C16.8022 149.538 17.2583 148.581 17.7875 147.716C18.3166 146.869 18.8458 146.207 19.3567 145.765C19.8676 145.323 20.3602 144.955 20.8164 144.661C21.2726 144.366 21.6557 144.201 21.9294 144.127L22.3308 144.017L23.8453 146.17C23.6993 146.152 23.4986 146.115 23.2614 146.096C23.0242 146.078 22.568 146.115 21.8929 146.225C21.2178 146.336 20.5974 146.538 20.0318 146.833C19.4662 147.127 18.864 147.642 18.2072 148.415C17.5685 149.188 17.0576 150.145 16.6927 151.286C16.3278 152.464 16.3643 153.716 16.8204 155.059C17.2766 156.403 18.1707 157.305 19.5391 157.802C20.6887 158.207 21.8199 158.078 22.9695 157.415C24.1007 156.753 25.159 155.832 26.1443 154.655C27.1297 153.477 28.115 152.28 29.1003 151.102C30.0856 149.925 31.1804 149.004 32.3846 148.379C33.5889 147.734 34.8114 147.642 36.0522 148.084C37.3112 148.526 38.2965 149.225 39.0263 150.145C39.7562 151.066 40.1941 152.059 40.3401 153.127C40.486 154.194 40.5225 155.207 40.4313 156.164C40.3401 157.102 40.1394 158.023 39.8657 158.869C39.519 159.918 39.0446 160.875 38.4789 161.704C37.9133 162.55 37.3477 163.194 36.8003 163.618C36.2529 164.041 35.7237 164.427 35.2128 164.703C34.7019 164.98 34.3005 165.182 33.9903 165.256L33.5159 165.384L32.0562 163.213C32.2204 163.213 32.4211 163.213 32.6948 163.231C32.9685 163.231 33.4612 163.176 34.191 163.047C34.9209 162.918 35.5777 162.697 36.1981 162.403C36.8003 162.108 37.4389 161.593 38.0958 160.875C38.7526 160.158 39.2453 159.274 39.5737 158.225L39.5555 158.243Z" fill="#161616"/>
<path d="M29.5965 124.066C29.4506 124.066 29.2681 124.122 29.0309 124.177C28.7937 124.232 28.4288 124.416 27.9544 124.692C27.4617 124.987 27.1333 125.355 26.9508 125.796L25.2174 129.956L44.2849 138.404C44.6498 138.569 45.0513 138.661 45.5257 138.68C45.9818 138.698 46.3467 138.68 46.6204 138.624L47.0584 138.551L45.5257 142.232C44.9965 141.293 44.3396 140.649 43.5186 140.281L24.451 131.833L22.7176 135.993C22.5352 136.434 22.4987 136.931 22.5899 137.447C22.6994 137.98 22.8454 138.385 23.0461 138.698L23.338 139.158L21.1484 137.925C21.5864 137.263 21.9695 136.545 22.2797 135.772L26.5129 125.557L27.2427 123.22L29.6148 124.011L29.5965 124.066Z" fill="#161616"/>
<path d="M32.5872 118.489C32.2406 118.305 31.8391 118.176 31.3647 118.121C30.9086 118.066 30.5254 118.047 30.2335 118.084L29.832 118.139L34.8133 108.256L35.7074 105.992L38.0247 106.968C37.8787 106.968 37.6962 106.986 37.459 107.023C37.2218 107.06 36.8387 107.207 36.346 107.465C35.8351 107.722 35.4884 108.054 35.2695 108.495L31.6567 115.655L39.6121 119.943L42.2396 114.753C42.4038 114.422 42.5133 114.035 42.5498 113.612C42.5863 113.17 42.5863 112.82 42.5133 112.563L42.4768 112.158L44.6116 113.299C43.6811 113.685 43.0424 114.256 42.6593 114.992L40.0318 120.182L50.0491 125.593C50.5235 125.851 51.0161 125.998 51.4905 125.998C51.9649 125.998 52.3116 125.814 52.5123 125.428L55.4865 119.538C55.742 119.023 55.9062 118.507 55.9974 118.01C56.0704 117.495 56.0886 117.072 56.0339 116.704C55.9792 116.354 55.8879 116.023 55.7967 115.728C55.6872 115.434 55.5777 115.213 55.45 115.066L55.3223 114.845L57.6213 116.428L50.9979 129.532C50.56 128.538 49.9396 127.82 49.155 127.397L32.6237 118.489H32.5872Z" fill="#161616"/>
<path d="M41.6376 96.0543C42.6047 94.4531 43.6082 93.2016 44.6848 92.2998C45.7613 91.3979 46.7649 90.8274 47.7137 90.6249C48.6625 90.4225 49.5383 90.3857 50.3047 90.5329C51.071 90.6802 51.8009 90.9562 52.476 91.3979C56.4902 93.993 56.8004 98.1341 53.3701 103.803L52.6949 104.925L58.917 108.938C59.2454 109.158 59.6468 109.306 60.0847 109.416C60.5409 109.508 60.9058 109.545 61.1795 109.508H61.6174L59.5191 112.95C59.1542 111.919 58.5885 111.165 57.8404 110.668L42.039 100.453C41.7106 100.232 41.3092 100.085 40.853 99.9929C40.3969 99.9009 40.0319 99.8641 39.7217 99.8641H39.3203L41.6376 96.0543ZM52.9321 103.527C53.6255 102.386 54.0999 101.318 54.3554 100.324C54.6108 99.3304 54.6838 98.4837 54.5743 97.8212C54.4648 97.1586 54.2276 96.5144 53.8262 95.9071C53.443 95.2997 53.0416 94.8212 52.6585 94.4899C52.257 94.1586 51.7826 93.809 51.217 93.4409C49.4836 92.3182 47.7867 92.0789 46.1445 92.7047C44.5023 93.3304 43.0973 94.5819 41.966 96.4592L41.2909 97.5819L52.257 104.668L52.9321 103.545V103.527Z" fill="#161616"/>
</g>
<defs>
<clipPath id="clip0_50_465">
<rect width="380" height="512" fill="white"/>
</clipPath>
</defs>
</svg>
